<svg xmlns="http://www.w3.org/2000/svg" width="30.788" height="28.145" viewBox="0 0 30.788 28.145"><path d="M874.405,727.535a.81.81,0,0,0-1.042-.476l-5.718,2.132a.809.809,0,0,0-.512.6L863.9,746.278H847.868l-2.4-12.148h16.8a.811.811,0,0,0,0-1.621H844.479a.811.811,0,0,0-.795.968l2.723,13.768a.81.81,0,0,0,.8.653h1.364l-1.287,2a.81.81,0,0,0,.681,1.249h.658a2.465,2.465,0,1,0,3.845,0h6.723a2.465,2.465,0,1,0,3.845,0h.658a.81.81,0,0,0,0-1.621H849.445l1.048-1.63h14.078a.809.809,0,0,0,.8-.654l3.27-16.693,5.293-1.973A.811.811,0,0,0,874.405,727.535Zm-23.864,26a.844.844,0,1,1,.843-.844A.845.845,0,0,1,850.541,753.531Zm10.567,0a.844.844,0,1,1,.844-.844A.845.845,0,0,1,861.108,753.531Z" transform="translate(-843.669 -727.008)" fill="#fff"/></svg>