<svg xmlns="http://www.w3.org/2000/svg" width="50.579" height="50.58" viewBox="0 0 50.579 50.58"><g transform="translate(-669.327 -6201.152)"><rect width="49.588" height="49.588" transform="translate(669.823 6201.648)" fill="#fff" stroke="#231815" stroke-linecap="round" stroke-linejoin="round" stroke-width="0.992"/><path d="M703.714,6239.773l-2.288-2.631a8.76,8.76,0,0,1-4.578,1.144,9.075,9.075,0,0,1-6.993-3.433,13.52,13.52,0,0,1-2.543-8.468,14.023,14.023,0,0,1,2.543-8.583,8.351,8.351,0,0,1,6.993-3.547,8.108,8.108,0,0,1,6.866,3.433,13.818,13.818,0,0,1,2.67,8.353,14.828,14.828,0,0,1-2.543,9.041l1.907,2.06Zm-4.2-9.727,1.653,1.832a14.116,14.116,0,0,0,.89-6.752q-.508-6.978-4.7-7.553a4.287,4.287,0,0,0-4.069,1.832,10.048,10.048,0,0,0-1.653,5.721,13.848,13.848,0,0,0,1.018,6.752q1.4,2.862,3.687,3.089a3.011,3.011,0,0,0,2.543-.572l-1.526-1.717Z" fill="#fff100"/><path d="M701.426,6239.773l-2.289-2.631a8.758,8.758,0,0,1-4.578,1.144,9.077,9.077,0,0,1-6.993-3.433,13.52,13.52,0,0,1-2.543-8.468,14.023,14.023,0,0,1,2.543-8.583,8.352,8.352,0,0,1,6.993-3.547,8.11,8.11,0,0,1,6.867,3.433,13.824,13.824,0,0,1,2.669,8.353,14.821,14.821,0,0,1-2.543,9.041l1.908,2.06Zm-4.2-9.727,1.653,1.832a14.128,14.128,0,0,0,.89-6.752q-.51-6.978-4.705-7.553A4.285,4.285,0,0,0,691,6219.4a10.034,10.034,0,0,0-1.653,5.721,13.849,13.849,0,0,0,1.017,6.752q1.4,2.862,3.687,3.089a3.01,3.01,0,0,0,2.543-.572l-1.526-1.717Z" fill="#fff"/><path d="M688.449,6235.822a9.419,9.419,0,0,1-.883-.969,13.52,13.52,0,0,1-2.543-8.468,14.023,14.023,0,0,1,2.543-8.583,9.306,9.306,0,0,1,2.32-2.217m2.106-.975a9,9,0,0,1,2.567-.355,8.11,8.11,0,0,1,6.867,3.433,13.824,13.824,0,0,1,2.669,8.353,14.821,14.821,0,0,1-2.543,9.041l1.908,2.06-2.034,2.631-2.289-2.631a8.758,8.758,0,0,1-4.578,1.144,9.939,9.939,0,0,1-4.326-1.156m7-7.084,1.653,1.832a14.128,14.128,0,0,0,.89-6.752q-.51-6.978-4.705-7.553A4.285,4.285,0,0,0,691,6219.4a10.034,10.034,0,0,0-1.653,5.721,13.849,13.849,0,0,0,1.017,6.752q1.4,2.862,3.687,3.089a3.01,3.01,0,0,0,2.543-.572l-1.526-1.717Z" fill="none" stroke="#231815" stroke-linecap="round" stroke-linejoin="round" stroke-width="0.992"/></g></svg>