<svg xmlns="http://www.w3.org/2000/svg" width="50.579" height="50.58" viewBox="0 0 50.579 50.58"><g transform="translate(-700.508 -6274.374)"><rect width="49.588" height="49.588" transform="translate(701.004 6274.87)" fill="#fff" stroke="#231815" stroke-linecap="round" stroke-linejoin="round" stroke-width="0.992"/><path d="M718.55,6311.279l7.136-23.573h4.939l7,23.573h-4.528l-1.235-5.035h-7.409l-1.235,5.035Zm6.861-8.583H730.9l-2.744-9.841Z" fill="#ffd82d" stroke="#dcdddd" stroke-miterlimit="10" stroke-width="0.661"/><path d="M716.262,6311.279l7.135-23.573h4.939l7,23.573h-4.528l-1.235-5.035h-7.409l-1.235,5.035Zm6.86-8.583h5.489l-2.745-9.841Z" fill="#fff"/><path d="M717.887,6305.91l3.419-11.295m5.433-6.909h1.6l7,23.573h-4.528l-1.235-5.035h-7.409l-1.235,5.035h-4.665l1.625-5.369m4.087-13.5,1.423-4.7h2.014m-2.289,14.99h5.489l-2.745-9.841Z" fill="none" stroke="#231815" stroke-linecap="round" stroke-linejoin="round" stroke-width="0.992"/></g></svg>