<svg xmlns="http://www.w3.org/2000/svg" xmlns:xlink="http://www.w3.org/1999/xlink" viewBox="0 0 536.02 139.1"><defs><style>.cls-1{isolation:isolate;}.cls-2{fill:#a09c93;opacity:0.5;}.cls-2,.cls-4{mix-blend-mode:multiply;}.cls-3{fill:#fffaf0;}.cls-4{fill:url(#名称未設定グラデーション_16);}.cls-5{fill:none;}.cls-6{fill:url(#新規グラデーションスウォッチ_9);}.cls-7{fill:url(#名称未設定グラデーション_389);}.cls-8{fill:url(#名称未設定グラデーション_110);}.cls-9{fill:url(#名称未設定グラデーション_349);}.cls-10{fill:url(#名称未設定グラデーション_389-2);}.cls-11{fill:url(#名称未設定グラデーション_110-2);}.cls-12{fill:url(#名称未設定グラデーション_349-2);}</style><radialGradient id="名称未設定グラデーション_16" cx="373.7" cy="42.16" r="199.34" gradientTransform="translate(-90.67 21.91) scale(0.96 1)" gradientUnits="userSpaceOnUse"><stop offset="0.59" stop-color="#fff"/><stop offset="1" stop-color="#eddfc9"/></radialGradient><linearGradient id="新規グラデーションスウォッチ_9" x1="9.72" y1="63.89" x2="526.3" y2="63.89" gradientUnits="userSpaceOnUse"><stop offset="0.01" stop-color="#421314"/><stop offset="0.08" stop-color="#6f4b26"/><stop offset="0.33" stop-color="#b1954f"/><stop offset="0.47" stop-color="#fdf0c5"/><stop offset="0.56" stop-color="#fdf0c5"/><stop offset="0.77" stop-color="#b19469"/><stop offset="0.8" stop-color="#a38358"/><stop offset="0.96" stop-color="#8d5429"/></linearGradient><linearGradient id="名称未設定グラデーション_389" x1="-4659.21" y1="9958.88" x2="-4659.21" y2="9974.69" gradientTransform="matrix(0.71, 0.71, 0.71, -0.71, -3751.12, 10421.78)" gradientUnits="userSpaceOnUse"><stop offset="0.1" stop-color="#840009"/><stop offset="0.5" stop-color="#c4242a"/><stop offset="0.9" stop-color="#840009"/></linearGradient><linearGradient id="名称未設定グラデーション_110" x1="-4659.21" y1="366.51" x2="-4659.21" y2="350.7" gradientTransform="translate(3627.83 3042.82) rotate(45)" gradientUnits="userSpaceOnUse"><stop offset="0.47" stop-color="#840009"/><stop offset="1" stop-color="#c4242a"/></linearGradient><linearGradient id="名称未設定グラデーション_349" x1="3055.14" y1="2240.35" x2="3174.91" y2="2240.35" gradientTransform="translate(-3751.12 654.15) rotate(-45)" gradientUnits="userSpaceOnUse"><stop offset="0.05" stop-color="#f35c4e"/><stop offset="0.27" stop-color="#bf0808"/><stop offset="0.53" stop-color="#f3434c"/><stop offset="0.66" stop-color="#ff6759"/><stop offset="0.83" stop-color="#cb0808"/></linearGradient><linearGradient id="名称未設定グラデーション_389-2" x1="3574.49" y1="-5445.03" x2="3574.49" y2="-5429.21" gradientTransform="matrix(-0.71, -0.71, -0.71, 0.71, -782.91, 6420.14)" xlink:href="#名称未設定グラデーション_389"/><linearGradient id="名称未設定グラデーション_110-2" x1="3574.49" y1="15770.42" x2="3574.49" y2="15754.6" gradientTransform="translate(-8161.87 13799.1) rotate(-135)" xlink:href="#名称未設定グラデーション_110"/><linearGradient id="名称未設定グラデーション_349-2" x1="-12348.76" y1="10474.05" x2="-12228.99" y2="10474.05" gradientTransform="translate(-782.91 16187.77) rotate(135)" xlink:href="#名称未設定グラデーション_349"/></defs><g class="cls-1"><g id="Layer_2" data-name="Layer 2"><g id="_40_50" data-name="40〜50"><path class="cls-2" d="M513.8,139.1a1571.33,1571.33,0,0,0-491.58,0V27.21a1571.33,1571.33,0,0,1,491.58,0Z"/><rect class="cls-3" x="3.72" y="3.73" width="528.58" height="120.31"/><rect class="cls-4" x="3.72" y="3.73" width="528.58" height="120.31"/><rect class="cls-5" x="10.72" y="10.73" width="514.58" height="106.31"/><path class="cls-6" d="M9.72,9.73V118H526.3V9.73ZM525.3,117H10.72V10.73H525.3Z"/><path class="cls-7" d="M0,84.69v-18H0l3.72,3.71h0V92.77a0,0,0,0,1,0,0l-.62-.62A10.54,10.54,0,0,1,0,84.69Z"/><path class="cls-8" d="M84.69,0h-18l3.73,3.73H92.79l-.64-.64A10.54,10.54,0,0,0,84.69,0Z"/><path class="cls-9" d="M79.12,0H62.33a10.54,10.54,0,0,0-7.46,3.09l-.64.64L3.73,54.23l-.64.64A10.54,10.54,0,0,0,0,62.33V79.12H0v5.57a10.5,10.5,0,0,1,3.09-7.45l.64-.64L76.6,3.73l.64-.64A10.5,10.5,0,0,1,84.69,0Z"/><path class="cls-10" d="M536,43.08v18h0l-3.71-3.71h0V35h0l.62.62A10.54,10.54,0,0,1,536,43.08Z"/><path class="cls-11" d="M451.33,127.77h18L465.6,124H443.23l.64.64A10.54,10.54,0,0,0,451.33,127.77Z"/><path class="cls-12" d="M456.9,127.77h16.79a10.54,10.54,0,0,0,7.46-3.09l.64-.64,50.5-50.5.64-.64A10.54,10.54,0,0,0,536,65.44V48.65h0V43.08a10.5,10.5,0,0,1-3.09,7.45l-.64.64L459.42,124l-.64.64a10.5,10.5,0,0,1-7.45,3.09Z"/></g></g></g></svg>