<svg xmlns="http://www.w3.org/2000/svg" width="400.107" height="225.918" viewBox="0 0 400.107 225.918"><g transform="translate(-716.232 -508.983)"><ellipse cx="200.053" cy="112.959" rx="200.053" ry="112.959" transform="translate(716.232 508.983)" fill="#fff"/><ellipse cx="198.803" cy="112.253" rx="198.803" ry="112.253" transform="translate(717.483 509.689)" fill="#fffffe"/><ellipse cx="197.553" cy="111.547" rx="197.553" ry="111.547" transform="translate(718.733 510.395)" fill="#fffffd"/><ellipse cx="196.302" cy="110.841" rx="196.302" ry="110.841" transform="translate(719.984 511.101)" fill="#fffffc"/><ellipse cx="195.052" cy="110.135" rx="195.052" ry="110.135" transform="translate(721.234 511.807)" fill="#fffffb"/><ellipse cx="193.802" cy="109.429" rx="193.802" ry="109.429" transform="translate(722.484 512.513)" fill="#fffffa"/><ellipse cx="192.551" cy="108.723" rx="192.551" ry="108.723" transform="translate(723.734 513.219)" fill="#fffff9"/><ellipse cx="191.301" cy="108.017" rx="191.301" ry="108.017" transform="translate(724.985 513.925)" fill="#fffff8"/><ellipse cx="190.051" cy="107.311" rx="190.051" ry="107.311" transform="translate(726.235 514.631)" fill="#fffff7"/><ellipse cx="188.8" cy="106.605" rx="188.8" ry="106.605" transform="translate(727.485 515.337)" fill="#fffff6"/><ellipse cx="187.55" cy="105.899" rx="187.55" ry="105.899" transform="translate(728.736 516.043)" fill="#fffff5"/><ellipse cx="186.3" cy="105.193" rx="186.3" ry="105.193" transform="translate(729.986 516.749)" fill="#fffff4"/><ellipse cx="185.049" cy="104.487" rx="185.049" ry="104.487" transform="translate(731.237 517.455)" fill="#fffff3"/><ellipse cx="183.799" cy="103.781" rx="183.799" ry="103.781" transform="translate(732.487 518.161)" fill="#fffff2"/><ellipse cx="182.549" cy="103.075" rx="182.549" ry="103.075" transform="translate(733.737 518.867)" fill="#fffff1"/><ellipse cx="181.298" cy="102.369" rx="181.298" ry="102.369" transform="translate(734.987 519.573)" fill="ivory"/><ellipse cx="180.048" cy="101.663" rx="180.048" ry="101.663" transform="translate(736.238 520.279)" fill="#ffffef"/><ellipse cx="178.798" cy="100.957" rx="178.798" ry="100.957" transform="translate(737.488 520.985)" fill="#ffe"/><ellipse cx="177.547" cy="100.251" rx="177.547" ry="100.251" transform="translate(738.739 521.691)" fill="#ffffed"/><ellipse cx="176.297" cy="99.545" rx="176.297" ry="99.545" transform="translate(739.989 522.397)" fill="#ffffec"/><ellipse cx="175.047" cy="98.839" rx="175.047" ry="98.839" transform="translate(741.239 523.103)" fill="#ffffeb"/><ellipse cx="173.796" cy="98.133" rx="173.796" ry="98.133" transform="translate(742.49 523.809)" fill="#ffffea"/><ellipse cx="172.546" cy="97.427" rx="172.546" ry="97.427" transform="translate(743.74 524.515)" fill="#ffffe9"/><ellipse cx="171.296" cy="96.721" rx="171.296" ry="96.721" transform="translate(744.99 525.221)" fill="#ffffe8"/><ellipse cx="170.045" cy="96.015" rx="170.045" ry="96.015" transform="translate(746.24 525.927)" fill="#ffffe7"/><ellipse cx="168.795" cy="95.309" rx="168.795" ry="95.309" transform="translate(747.491 526.633)" fill="#ffffe6"/><ellipse cx="167.545" cy="94.603" rx="167.545" ry="94.603" transform="translate(748.741 527.339)" fill="#ffffe5"/><ellipse cx="166.294" cy="93.897" rx="166.294" ry="93.897" transform="translate(749.992 528.045)" fill="#ffffe4"/><ellipse cx="165.044" cy="93.191" rx="165.044" ry="93.191" transform="translate(751.242 528.751)" fill="#ffffe3"/><ellipse cx="163.794" cy="92.485" rx="163.794" ry="92.485" transform="translate(752.492 529.457)" fill="#ffffe2"/><ellipse cx="162.543" cy="91.779" rx="162.543" ry="91.779" transform="translate(753.742 530.163)" fill="#ffffe1"/><ellipse cx="161.293" cy="91.073" rx="161.293" ry="91.073" transform="translate(754.993 530.869)" fill="#ffffe0"/><ellipse cx="160.043" cy="90.367" rx="160.043" ry="90.367" transform="translate(756.243 531.575)" fill="#ffffdf"/><ellipse cx="158.792" cy="89.661" rx="158.792" ry="89.661" transform="translate(757.493 532.281)" fill="#ffffde"/><ellipse cx="157.542" cy="88.955" rx="157.542" ry="88.955" transform="translate(758.744 532.987)" fill="#ffd"/><ellipse cx="156.292" cy="88.249" rx="156.292" ry="88.249" transform="translate(759.994 533.693)" fill="#ffffdc"/><ellipse cx="155.041" cy="87.543" rx="155.041" ry="87.543" transform="translate(761.245 534.399)" fill="#ffffdb"/><ellipse cx="153.791" cy="86.837" rx="153.791" ry="86.837" transform="translate(762.495 535.105)" fill="#ffffda"/><ellipse cx="152.541" cy="86.131" rx="152.541" ry="86.131" transform="translate(763.745 535.811)" fill="#ffffd9"/><ellipse cx="151.29" cy="85.425" rx="151.29" ry="85.425" transform="translate(764.995 536.517)" fill="#ffffd8"/><ellipse cx="150.04" cy="84.719" rx="150.04" ry="84.719" transform="translate(766.246 537.223)" fill="#ffffd8"/><ellipse cx="148.79" cy="84.013" rx="148.79" ry="84.013" transform="translate(767.496 537.929)" fill="#ffffd7"/><ellipse cx="147.539" cy="83.307" rx="147.539" ry="83.307" transform="translate(768.746 538.635)" fill="#ffffd6"/><ellipse cx="146.289" cy="82.601" rx="146.289" ry="82.601" transform="translate(769.997 539.341)" fill="#ffffd5"/><ellipse cx="145.039" cy="81.895" rx="145.039" ry="81.895" transform="translate(771.247 540.047)" fill="#ffffd4"/><ellipse cx="143.788" cy="81.189" rx="143.788" ry="81.189" transform="translate(772.497 540.753)" fill="#ffffd3"/><ellipse cx="142.538" cy="80.483" rx="142.538" ry="80.483" transform="translate(773.748 541.459)" fill="#ffffd2"/><ellipse cx="141.288" cy="79.777" rx="141.288" ry="79.777" transform="translate(774.998 542.165)" fill="#ffffd1"/><ellipse cx="140.037" cy="79.071" rx="140.037" ry="79.071" transform="translate(776.248 542.871)" fill="#ffffd0"/><ellipse cx="138.787" cy="78.365" rx="138.787" ry="78.365" transform="translate(777.499 543.577)" fill="#ffffcf"/><ellipse cx="137.537" cy="77.659" rx="137.537" ry="77.659" transform="translate(778.749 544.283)" fill="#ffffce"/><ellipse cx="136.286" cy="76.953" rx="136.286" ry="76.953" transform="translate(780 544.989)" fill="#ffffcd"/><ellipse cx="135.036" cy="76.247" rx="135.036" ry="76.247" transform="translate(781.25 545.695)" fill="#ffc"/><ellipse cx="133.786" cy="75.541" rx="133.786" ry="75.541" transform="translate(782.5 546.401)" fill="#ffffcb"/><ellipse cx="132.535" cy="74.835" rx="132.535" ry="74.835" transform="translate(783.75 547.107)" fill="#ffffca"/><ellipse cx="131.285" cy="74.129" rx="131.285" ry="74.129" transform="translate(785.001 547.813)" fill="#ffffc9"/><ellipse cx="130.035" cy="73.423" rx="130.035" ry="73.423" transform="translate(786.251 548.519)" fill="#ffffc8"/><ellipse cx="128.784" cy="72.717" rx="128.784" ry="72.717" transform="translate(787.501 549.225)" fill="#ffffc7"/><ellipse cx="127.534" cy="72.011" rx="127.534" ry="72.011" transform="translate(788.752 549.931)" fill="#ffffc6"/><ellipse cx="126.284" cy="71.305" rx="126.284" ry="71.305" transform="translate(790.002 550.637)" fill="#ffffc5"/><ellipse cx="125.033" cy="70.599" rx="125.033" ry="70.599" transform="translate(791.253 551.343)" fill="#ffffc4"/><ellipse cx="123.783" cy="69.893" rx="123.783" ry="69.893" transform="translate(792.503 552.049)" fill="#ffffc3"/><ellipse cx="122.533" cy="69.187" rx="122.533" ry="69.187" transform="translate(793.753 552.755)" fill="#ffffc2"/><ellipse cx="121.282" cy="68.481" rx="121.282" ry="68.481" transform="translate(795.003 553.461)" fill="#ffffc1"/><ellipse cx="120.032" cy="67.775" rx="120.032" ry="67.775" transform="translate(796.254 554.167)" fill="#ffffc0"/><ellipse cx="118.782" cy="67.069" rx="118.782" ry="67.069" transform="translate(797.504 554.873)" fill="#ffffbf"/><ellipse cx="117.531" cy="66.363" rx="117.531" ry="66.363" transform="translate(798.754 555.579)" fill="#ffffbe"/><ellipse cx="116.281" cy="65.657" rx="116.281" ry="65.657" transform="translate(800.005 556.285)" fill="#ffffbd"/><ellipse cx="115.031" cy="64.951" rx="115.031" ry="64.951" transform="translate(801.255 556.991)" fill="#ffffbc"/><ellipse cx="113.78" cy="64.245" rx="113.78" ry="64.245" transform="translate(802.505 557.697)" fill="#ffb"/><ellipse cx="112.53" cy="63.539" rx="112.53" ry="63.539" transform="translate(803.756 558.403)" fill="#ffffba"/><ellipse cx="111.28" cy="62.833" rx="111.28" ry="62.833" transform="translate(805.006 559.109)" fill="#ffffb9"/><ellipse cx="110.029" cy="62.127" rx="110.029" ry="62.127" transform="translate(806.256 559.815)" fill="#ffffb8"/><ellipse cx="108.779" cy="61.421" rx="108.779" ry="61.421" transform="translate(807.507 560.521)" fill="#ffffb7"/><ellipse cx="107.529" cy="60.715" rx="107.529" ry="60.715" transform="translate(808.757 561.227)" fill="#ffffb6"/><ellipse cx="106.278" cy="60.009" rx="106.278" ry="60.009" transform="translate(810.007 561.932)" fill="#ffffb5"/><ellipse cx="105.028" cy="59.303" rx="105.028" ry="59.303" transform="translate(811.258 562.638)" fill="#ffffb4"/><ellipse cx="103.778" cy="58.597" rx="103.778" ry="58.597" transform="translate(812.508 563.344)" fill="#ffffb3"/><ellipse cx="102.527" cy="57.891" rx="102.527" ry="57.891" transform="translate(813.758 564.05)" fill="#ffffb2"/><ellipse cx="101.277" cy="57.185" rx="101.277" ry="57.185" transform="translate(815.009 564.756)" fill="#ffffb1"/><ellipse cx="100.027" cy="56.479" rx="100.027" ry="56.479" transform="translate(816.259 565.462)" fill="#ffffb0"/></g></svg>