<svg xmlns="http://www.w3.org/2000/svg" width="28.773" height="71.294" viewBox="0 0 28.773 71.294"><g transform="translate(-820.423 -531.333)"><path d="M844.144,602.627a8.12,8.12,0,0,0,.947-.053,6.2,6.2,0,0,0,2.311-.729,2.229,2.229,0,0,0,1.076-1.248.931.931,0,0,1,.406-.88,2.475,2.475,0,0,0,.292-1.594,7.313,7.313,0,0,0-.6-2.163,12.3,12.3,0,0,0-.924-1.785c-.33-.529-.6-.957-.822-1.247s-.371-.471-.371-.471l-.374-.425-.116.554c0,.025-.126.61-.215,1.413a11.247,11.247,0,0,0-.018,2.707,5,5,0,0,0,1.079,2.543c-.168-.015-.335-.022-.5-.022a7.137,7.137,0,0,0-2.288.4,22.137,22.137,0,0,0-2.566,1.092c-.77.374-1.344.68-1.344.68l-.559.3.595.217s.279.1.742.233l.083.022a11.837,11.837,0,0,0,1.75.366,12.7,12.7,0,0,0,1.418.088Z" fill="#c1981c"/><path d="M838.584,597.949a5.76,5.76,0,0,0,1.828-.273,2.219,2.219,0,0,0,1.3-1.005.928.928,0,0,1,.575-.78,2.48,2.48,0,0,0,.607-1.5,7.307,7.307,0,0,0-.152-2.236,11.591,11.591,0,0,0-.544-1.933,14.509,14.509,0,0,0-.552-1.386l-.532-1.091-.395.958c-.094.242-.218.575-.343.963a11.794,11.794,0,0,0-.566,2.646,5.019,5.019,0,0,0,.545,2.708,6.258,6.258,0,0,0-1.8-.252,8.062,8.062,0,0,0-1.01.065,21.5,21.5,0,0,0-2.732.549l-1.036.276-1.023.284.706.449c.129.073.3.167.51.276a13.994,13.994,0,0,0,1.712.751,10.739,10.739,0,0,0,2.313.513c.2.014.4.022.588.022Z" fill="#c1981c"/><path d="M833.8,592.215a5.168,5.168,0,0,0,.6-.035,2.233,2.233,0,0,0,1.477-.718,1.668,1.668,0,0,0,.27-.427,1.6,1.6,0,0,0,.451-.221,2.449,2.449,0,0,0,.9-1.355,7.542,7.542,0,0,0,.3-2.214,12.343,12.343,0,0,0-.145-2,12.648,12.648,0,0,0-.268-1.473c-.082-.353-.137-.571-.137-.571l-.15-.591-.355.5c-.015.021-.371.521-.769,1.224a11.85,11.85,0,0,0-1.08,2.473,5.441,5.441,0,0,0-.182,1.848,4.177,4.177,0,0,0,.166.919,5.886,5.886,0,0,0-.842-.375,7.956,7.956,0,0,0-1.867-.379c-.355-.034-.763-.051-1.247-.051-.563,0-1.124.023-1.55.044-.856.041-1.488.086-1.488.086l-.6.042.416.435a7.014,7.014,0,0,0,.586.526,15.834,15.834,0,0,0,1.528,1.074,10.586,10.586,0,0,0,2.163.968,6.36,6.36,0,0,0,1.816.277Z" fill="#c1981c"/><path d="M829.884,585.6a2.154,2.154,0,0,0,1.346-.419,1.655,1.655,0,0,0,.349-.363,1.635,1.635,0,0,0,.487-.127,2.435,2.435,0,0,0,1.153-1.145,10.28,10.28,0,0,0,1-4.1c.036-.457.032-.863.029-1.189v-.3c0-.385-.021-.613-.021-.613l-.051-.581-.425.4c-.018.018-.457.432-1,1.045a11.148,11.148,0,0,0-1.549,2.207,5.131,5.131,0,0,0-.553,1.782,4.666,4.666,0,0,0-.018.927,4.966,4.966,0,0,0-.756-.537,8.581,8.581,0,0,0-1.744-.744,21.56,21.56,0,0,0-2.636-.547l-.1-.017c-.838-.136-1.478-.214-1.478-.214l-.616-.075.347.514s.165.245.46.62a12.59,12.59,0,0,0,1.289,1.36,7.592,7.592,0,0,0,4.247,2.1C829.723,585.6,829.8,585.6,829.884,585.6Z" fill="#c1981c"/><path d="M827.038,578.295a1.991,1.991,0,0,0,.885-.2,1.661,1.661,0,0,0,.413-.285,1.491,1.491,0,0,0,.159.008,1.689,1.689,0,0,0,.345-.036,2.421,2.421,0,0,0,1.355-.892,8.2,8.2,0,0,0,1.149-1.919,10.219,10.219,0,0,0,.366-.982c.1-.293.2-.6.286-.918.12-.463.207-.877.277-1.211l.05-.235c.072-.38.1-.606.1-.606l.06-.574-.49.3c-.022.013-.532.331-1.181.822a10.683,10.683,0,0,0-1.963,1.856,4.92,4.92,0,0,0-1.1,2.537,7.059,7.059,0,0,0-2.2-1.754,24.637,24.637,0,0,0-2.54-1.09c-.827-.311-1.442-.516-1.442-.516l-.594-.2.245.576s.115.273.333.7a10.435,10.435,0,0,0,.992,1.594c.232.317.474.618.717.893a9.666,9.666,0,0,0,.892.841,5.707,5.707,0,0,0,2.125,1.17A2.818,2.818,0,0,0,827.038,578.295Z" fill="#c1981c"/><path d="M825.615,570.558a1.915,1.915,0,0,0,.479-.06.918.918,0,0,1,.955-.123,2.412,2.412,0,0,0,1.509-.6,10.21,10.21,0,0,0,2.532-3.375l.083-.175c.222-.47.413-.876.536-1.186.142-.35.208-.567.208-.567l.168-.546-.536.2c-.024.009-.585.217-1.316.568a10.752,10.752,0,0,0-2.3,1.423,5.721,5.721,0,0,0-1.211,1.413,4.566,4.566,0,0,0-.368.85,5.28,5.28,0,0,0-.5-.792,7.435,7.435,0,0,0-1.3-1.37,24.208,24.208,0,0,0-2.29-1.6c-.724-.455-1.287-.778-1.287-.778l-.546-.315.128.617s.06.291.191.752a10.941,10.941,0,0,0,.649,1.765,7.707,7.707,0,0,0,3.07,3.593A2.53,2.53,0,0,0,825.615,570.558Z" fill="#c1981c"/><path d="M827.172,562.795a2.68,2.68,0,0,0,1.214-.323,7.408,7.408,0,0,0,1.819-1.312,13.564,13.564,0,0,0,1.351-1.488l.241-.32c.261-.344.486-.642.639-.886.205-.311.313-.51.313-.51l.271-.5-.562.085c-.025,0-.616.095-1.4.291a11.109,11.109,0,0,0-2.544.928,5.771,5.771,0,0,0-1.466,1.14,3.783,3.783,0,0,0-.536.757,6.8,6.8,0,0,0-.323-.868,7.4,7.4,0,0,0-1.01-1.614,24.105,24.105,0,0,0-1.92-2.025c-.618-.591-1.1-1.023-1.1-1.023l-.474-.419,0,.633s0,.3.039.775l.015.166a10.5,10.5,0,0,0,.261,1.692,9.954,9.954,0,0,0,.794,2.229,6.139,6.139,0,0,0,1.482,1.909,2.322,2.322,0,0,0,1.46.575l.093,0a1.639,1.639,0,0,0,.491-.1,1.656,1.656,0,0,0,.476.173A1.932,1.932,0,0,0,827.172,562.795Z" fill="#c1981c"/><path d="M828.892,555.4a3.115,3.115,0,0,0,.8-.115,7.361,7.361,0,0,0,2.046-.922,13.021,13.021,0,0,0,1.624-1.191c.163-.148.322-.286.47-.415.257-.223.479-.416.645-.588.266-.262.414-.435.414-.435l.375-.438-.575-.029s-.249-.013-.644-.013c-.224,0-.495,0-.794.017a10.556,10.556,0,0,0-2.691.4,5.8,5.8,0,0,0-1.663.824,3.7,3.7,0,0,0-.679.634,6.983,6.983,0,0,0-.141-.914,7.326,7.326,0,0,0-.667-1.785,24.5,24.5,0,0,0-1.467-2.36c-.484-.7-.872-1.217-.872-1.217l-.376-.5-.128.613s-.06.29-.123.763l-.027.233a9.245,9.245,0,0,0-.082,1.639,10.013,10.013,0,0,0,.331,2.336,6.171,6.171,0,0,0,1.071,2.168,2.255,2.255,0,0,0,1.4.873,1.778,1.778,0,0,0,.259.019,1.607,1.607,0,0,0,.242-.018,1.659,1.659,0,0,0,.431.265A2.058,2.058,0,0,0,828.892,555.4Z" fill="#c1981c"/><path d="M832.207,548.519c.074,0,.151,0,.231-.008a7.153,7.153,0,0,0,2.169-.51,11.463,11.463,0,0,0,1.835-.829c.263-.147.5-.292.71-.428l.552-.332c.328-.207.51-.344.51-.344l.466-.351-.565-.148c-.024-.007-.608-.159-1.415-.291-.335-.054-.837-.128-1.342-.159-.192-.01-.383-.016-.571-.016a7.551,7.551,0,0,0-.782.037,5.155,5.155,0,0,0-2.6.953,6.708,6.708,0,0,0-.239-2.8c-.107-.377-.26-.816-.468-1.343-.173-.446-.346-.881-.513-1.273-.329-.78-.6-1.364-.6-1.364l-.264-.562-.251.567s-.12.271-.281.721l-.024.068c-.073.211-.158.454-.233.73q-.126.527-.21,1.025a10.847,10.847,0,0,0-.159,2.347,6.329,6.329,0,0,0,.643,2.36,2.237,2.237,0,0,0,1.194,1.128,1.663,1.663,0,0,0,.494.1,1.638,1.638,0,0,0,.367.344A2.33,2.33,0,0,0,832.207,548.519Z" fill="#c1981c"/><path d="M837.363,542.475a8.069,8.069,0,0,0,1.323-.115,15.109,15.109,0,0,0,1.963-.446c.346-.1.651-.221.919-.324.169-.064.321-.123.458-.168.369-.136.576-.232.576-.232l.532-.249-.526-.261c-.023-.012-.565-.279-1.33-.573a10.473,10.473,0,0,0-2.605-.675,6.512,6.512,0,0,0-.663-.034,5.551,5.551,0,0,0-1.2.127,3.537,3.537,0,0,0-.871.32,7.664,7.664,0,0,0,.225-.9,7.266,7.266,0,0,0,.1-1.893,20.425,20.425,0,0,0-.352-2.325l-.083-.438c-.164-.834-.314-1.461-.314-1.461l-.143-.6-.362.5s-.173.24-.422.646a10.074,10.074,0,0,0-.821,1.694,9.326,9.326,0,0,0-.628,2.286,6.222,6.222,0,0,0,.144,2.421,2.232,2.232,0,0,0,.939,1.345,1.733,1.733,0,0,0,.465.2,1.6,1.6,0,0,0,.289.409,2.446,2.446,0,0,0,1.48.68A6.434,6.434,0,0,0,837.363,542.475Z" fill="#c1981c"/><path d="M839.525,536.978a4.893,4.893,0,0,0,3.47-1.71,19.981,19.981,0,0,0,2.423-3.414l.293-.521-.589.1c-.164.029-4.053.736-5.889,3.165a1.989,1.989,0,0,0-.372,2.2l.06.1.115.028a2.238,2.238,0,0,0,.488.046Z" fill="#c1981c"/></g></svg>