<svg xmlns="http://www.w3.org/2000/svg" xmlns:xlink="http://www.w3.org/1999/xlink" viewBox="0 0 108.87 15.74"><defs><style>.cls-1{fill:url(#New_Gradient_Swatch_3);}.cls-2{fill:url(#New_Gradient_Swatch_3-2);}.cls-3,.cls-4{fill:none;stroke-miterlimit:10;stroke-width:1.07px;}.cls-3{stroke:url(#名称未設定グラデーション_7);}.cls-4{stroke:url(#名称未設定グラデーション_7-2);}</style><linearGradient id="New_Gradient_Swatch_3" x1="44.13" y1="6.94" x2="65.86" y2="6.94" gradientUnits="userSpaceOnUse"><stop offset="0.03" stop-color="#b37e10"/><stop offset="0.12" stop-color="#b68214"/><stop offset="0.22" stop-color="#be8d21"/><stop offset="0.32" stop-color="#cb9f36"/><stop offset="0.42" stop-color="#deb953"/><stop offset="0.52" stop-color="#f6da78"/><stop offset="0.53" stop-color="#f8dd7b"/><stop offset="0.74" stop-color="#f8dd7b"/><stop offset="0.88" stop-color="#b37e10"/><stop offset="1" stop-color="#c6972f"/></linearGradient><linearGradient id="New_Gradient_Swatch_3-2" x1="45.69" y1="15.2" x2="64.27" y2="15.2" xlink:href="#New_Gradient_Swatch_3"/><linearGradient id="名称未設定グラデーション_7" x1="71.03" y1="13.76" x2="108.87" y2="13.76" gradientUnits="userSpaceOnUse"><stop offset="0.03" stop-color="#b37e10"/><stop offset="0.17" stop-color="#b58013" stop-opacity="0.98"/><stop offset="0.32" stop-color="#b9871a" stop-opacity="0.91"/><stop offset="0.46" stop-color="#c19226" stop-opacity="0.79"/><stop offset="0.61" stop-color="#cda138" stop-opacity="0.63"/><stop offset="0.76" stop-color="#dbb54e" stop-opacity="0.42"/><stop offset="0.91" stop-color="#edcd6a" stop-opacity="0.16"/><stop offset="1" stop-color="#f8dd7b" stop-opacity="0"/></linearGradient><linearGradient id="名称未設定グラデーション_7-2" x1="-3768.69" y1="12615.22" x2="-3730.85" y2="12615.22" gradientTransform="translate(-3730.85 12628.97) rotate(180)" xlink:href="#名称未設定グラデーション_7"/></defs><g id="Layer_2" data-name="Layer 2"><g id="_40_50" data-name="40〜50"><path class="cls-1" d="M45.62,13.88H64.37c.1-1.1.23-2.21.39-3.3s.31-2,.5-2.92v0q-.81,1.09-1.68,2.07A25.72,25.72,0,0,1,61.31,12l-.15.14,0-.2c-.25-1.49-.46-3-.64-4.52-.11-1-.21-2-.29-3V4.3h.13a.42.42,0,0,0,.37-.45.38.38,0,1,0-.75,0,.47.47,0,0,0,.14.35l.06.06,0,.07c-.41.9-.86,1.79-1.33,2.63s-1,1.72-1.53,2.52l-.13.2L57,9.45c-.39-1.4-.76-2.82-1.1-4.25S55.18,1.73,55,1l0-.1.1,0a.47.47,0,0,0,.26-.44.38.38,0,1,0-.75,0,.46.46,0,0,0,.27.44l.09,0L55,1c-.15.71-.6,2.89-.91,4.18S53.34,8.05,53,9.45l-.06.23-.14-.2c-.53-.8-1-1.65-1.53-2.52s-.89-1.68-1.3-2.56l0-.09L50,4.25a.45.45,0,0,0,.21-.4.38.38,0,1,0-.75,0,.44.44,0,0,0,.29.44l.09,0v.09c-.08,1-.18,2-.29,3-.17,1.51-.39,3-.64,4.52l0,.2L48.68,12A25.72,25.72,0,0,1,46.41,9.7c-.57-.65-1.14-1.34-1.67-2.07l0,0v0c.19,1,.36,1.95.5,2.92S45.52,12.78,45.62,13.88Zm-1.11-7.2a.43.43,0,0,0-.38.46.42.42,0,0,0,.38.45h.08l.09,0h0l.07-.06a.54.54,0,0,0,.13-.35A.43.43,0,0,0,44.51,6.68Zm20.81.87.08,0h.09a.46.46,0,1,0-.38-.45.48.48,0,0,0,.14.35Z"/><path class="cls-2" d="M45.78,15.74H64.16l.11-1.08H45.69Z"/><line class="cls-3" x1="71.03" y1="13.76" x2="108.87" y2="13.76"/><line class="cls-4" x1="37.84" y1="13.76" y2="13.76"/></g></g></svg>