<svg xmlns="http://www.w3.org/2000/svg" width="28.773" height="71.294" viewBox="0 0 28.773 71.294"><g transform="translate(-977.268 -531.333)"><path d="M982.32,602.627a8.1,8.1,0,0,1-.946-.053,6.2,6.2,0,0,1-2.312-.729,2.222,2.222,0,0,1-1.075-1.248.929.929,0,0,0-.407-.88,2.48,2.48,0,0,1-.292-1.594,7.341,7.341,0,0,1,.6-2.163,12.194,12.194,0,0,1,.925-1.785c.33-.529.6-.957.822-1.247s.371-.471.371-.471l.374-.425.115.554c.006.025.126.61.215,1.413a11.194,11.194,0,0,1,.018,2.707,4.99,4.99,0,0,1-1.079,2.543c.169-.015.335-.022.5-.022a7.133,7.133,0,0,1,2.288.4,21.994,21.994,0,0,1,2.566,1.092c.77.374,1.344.68,1.344.68l.559.3-.6.217s-.279.1-.742.233l-.083.022a11.837,11.837,0,0,1-1.75.366,12.67,12.67,0,0,1-1.418.088Z" fill="#c1981c"/><path d="M987.88,597.949a5.76,5.76,0,0,1-1.828-.273,2.219,2.219,0,0,1-1.3-1.005,1.666,1.666,0,0,1-.176-.469,1.636,1.636,0,0,1-.4-.311,2.48,2.48,0,0,1-.607-1.5,7.307,7.307,0,0,1,.152-2.236,11.686,11.686,0,0,1,.544-1.933,14.756,14.756,0,0,1,.552-1.386l.533-1.091.4.958c.094.242.217.575.343.963a11.806,11.806,0,0,1,.565,2.646,5.012,5.012,0,0,1-.544,2.708,6.25,6.25,0,0,1,1.8-.252,8.052,8.052,0,0,1,1.01.065,21.5,21.5,0,0,1,2.732.549l1.036.276,1.023.284-.706.449c-.128.073-.3.167-.51.276a13.928,13.928,0,0,1-1.712.751,10.726,10.726,0,0,1-2.313.513c-.2.014-.4.022-.588.022Z" fill="#c1981c"/><path d="M992.659,592.215a5.166,5.166,0,0,1-.6-.035,2.233,2.233,0,0,1-1.477-.718,1.693,1.693,0,0,1-.27-.427,1.608,1.608,0,0,1-.451-.221,2.449,2.449,0,0,1-.9-1.355,7.542,7.542,0,0,1-.3-2.214,12.351,12.351,0,0,1,.144-2,12.861,12.861,0,0,1,.268-1.473c.083-.353.138-.571.138-.571l.149-.591.355.5c.015.021.372.521.77,1.224a11.85,11.85,0,0,1,1.08,2.473,5.493,5.493,0,0,1,.182,1.848,4.238,4.238,0,0,1-.167.919,5.889,5.889,0,0,1,.842-.375,7.954,7.954,0,0,1,1.868-.379c.355-.034.763-.051,1.247-.051.563,0,1.124.023,1.55.044.855.041,1.487.086,1.487.086l.6.042-.416.435a6.8,6.8,0,0,1-.586.526,15.818,15.818,0,0,1-1.528,1.074,10.577,10.577,0,0,1-2.162.968,6.373,6.373,0,0,1-1.817.277Z" fill="#c1981c"/><path d="M996.581,585.6a2.151,2.151,0,0,1-1.346-.419,1.687,1.687,0,0,1-.35-.363,1.623,1.623,0,0,1-.486-.127,2.431,2.431,0,0,1-1.153-1.145,10.263,10.263,0,0,1-1-4.1c-.036-.457-.033-.863-.03-1.189v-.3c0-.385.021-.613.021-.613l.052-.581.424.4c.019.018.457.432,1,1.045a11.143,11.143,0,0,1,1.549,2.207,5.131,5.131,0,0,1,.553,1.782,4.67,4.67,0,0,1,.018.927,5.071,5.071,0,0,1,.756-.537,8.581,8.581,0,0,1,1.744-.744,21.6,21.6,0,0,1,2.636-.547l.106-.017c.838-.136,1.478-.214,1.478-.214l.616-.075-.347.514s-.165.245-.461.62a12.59,12.59,0,0,1-1.289,1.36,7.588,7.588,0,0,1-4.246,2.1C996.741,585.6,996.659,585.6,996.581,585.6Z" fill="#c1981c"/><path d="M999.427,578.295a1.989,1.989,0,0,1-.885-.2,1.67,1.67,0,0,1-.414-.285,1.477,1.477,0,0,1-.159.008,1.7,1.7,0,0,1-.345-.036,2.421,2.421,0,0,1-1.355-.892,8.232,8.232,0,0,1-1.149-1.919,10.206,10.206,0,0,1-.365-.982c-.1-.293-.2-.6-.287-.918-.12-.463-.207-.877-.277-1.211l-.049-.235c-.073-.38-.1-.606-.1-.606l-.059-.574.49.3c.021.013.532.331,1.18.822a10.691,10.691,0,0,1,1.964,1.856,4.91,4.91,0,0,1,1.1,2.537,7.057,7.057,0,0,1,2.2-1.754,24.554,24.554,0,0,1,2.541-1.09c.827-.311,1.441-.516,1.441-.516l.594-.2-.244.576s-.116.273-.334.7a10.486,10.486,0,0,1-.991,1.594c-.233.317-.475.618-.718.893a9.792,9.792,0,0,1-.891.841,5.71,5.71,0,0,1-2.126,1.17A2.805,2.805,0,0,1,999.427,578.295Z" fill="#c1981c"/><path d="M1000.849,570.558a1.9,1.9,0,0,1-.478-.06,1.654,1.654,0,0,1-.462-.2,1.626,1.626,0,0,1-.493.074,2.415,2.415,0,0,1-1.51-.6,10.222,10.222,0,0,1-2.532-3.375l-.083-.175c-.221-.47-.413-.876-.536-1.186-.141-.35-.208-.567-.208-.567l-.167-.546.535.2c.024.009.586.217,1.317.568a10.775,10.775,0,0,1,2.3,1.423,5.721,5.721,0,0,1,1.211,1.413,4.557,4.557,0,0,1,.367.85,5.288,5.288,0,0,1,.5-.792,7.426,7.426,0,0,1,1.3-1.37,24.11,24.11,0,0,1,2.291-1.6c.724-.455,1.286-.778,1.286-.778l.546-.315-.127.617s-.061.291-.192.752a10.941,10.941,0,0,1-.649,1.765,7.707,7.707,0,0,1-3.07,3.593A2.53,2.53,0,0,1,1000.849,570.558Z" fill="#c1981c"/><path d="M999.293,562.795a2.673,2.673,0,0,1-1.214-.323,7.414,7.414,0,0,1-1.82-1.312,13.537,13.537,0,0,1-1.35-1.488l-.242-.32c-.26-.344-.486-.642-.639-.886-.205-.311-.313-.51-.313-.51l-.27-.5.561.085c.025,0,.616.095,1.4.291a11.075,11.075,0,0,1,2.544.928,5.753,5.753,0,0,1,1.466,1.14,3.83,3.83,0,0,1,.537.757,6.52,6.52,0,0,1,.323-.868,7.323,7.323,0,0,1,1.01-1.614,24.3,24.3,0,0,1,1.919-2.025c.618-.591,1.1-1.023,1.1-1.023l.473-.419,0,.633s0,.3-.038.775l-.016.166a10.494,10.494,0,0,1-.261,1.692,9.943,9.943,0,0,1-.793,2.229,6.141,6.141,0,0,1-1.483,1.909,2.322,2.322,0,0,1-1.459.575l-.094,0a.927.927,0,0,0-.966.073A1.948,1.948,0,0,1,999.293,562.795Z" fill="#c1981c"/><path d="M997.572,555.4a3.107,3.107,0,0,1-.8-.115,7.366,7.366,0,0,1-2.047-.922,13,13,0,0,1-1.623-1.191c-.164-.148-.323-.286-.471-.415-.257-.223-.479-.416-.644-.588-.267-.262-.415-.435-.415-.435l-.374-.438.574-.029s.25-.013.644-.013c.225,0,.5,0,.795.017a10.554,10.554,0,0,1,2.69.4,5.789,5.789,0,0,1,1.664.824,3.687,3.687,0,0,1,.678.634,6.935,6.935,0,0,1,.808-2.7,24.513,24.513,0,0,1,1.467-2.36c.484-.7.873-1.217.873-1.217l.376-.5.127.613s.06.29.123.763l.027.233a9.147,9.147,0,0,1,.082,1.639,10.009,10.009,0,0,1-.33,2.336,6.187,6.187,0,0,1-1.071,2.168,2.257,2.257,0,0,1-1.4.873,1.764,1.764,0,0,1-.258.019,1.6,1.6,0,0,1-.242-.018,1.667,1.667,0,0,1-.432.265A2.058,2.058,0,0,1,997.572,555.4Z" fill="#c1981c"/><path d="M994.257,548.519c-.074,0-.151,0-.231-.008a7.148,7.148,0,0,1-2.168-.51,11.475,11.475,0,0,1-1.836-.829c-.263-.147-.5-.292-.71-.428l-.552-.332c-.328-.207-.51-.344-.51-.344l-.465-.351.564-.148c.024-.007.608-.159,1.415-.291.335-.054.837-.128,1.343-.159.192-.01.382-.016.57-.016a7.551,7.551,0,0,1,.782.037,5.155,5.155,0,0,1,2.6.953,6.7,6.7,0,0,1,.24-2.8,14.209,14.209,0,0,1,.467-1.343c.174-.446.346-.881.513-1.273.33-.78.6-1.364.6-1.364l.263-.562.252.567s.12.271.28.721l.024.068c.074.211.159.454.234.73q.126.527.209,1.025a10.918,10.918,0,0,1,.16,2.347,6.329,6.329,0,0,1-.643,2.36,2.241,2.241,0,0,1-1.194,1.128,1.669,1.669,0,0,1-.494.1,1.639,1.639,0,0,1-.367.344A2.331,2.331,0,0,1,994.257,548.519Z" fill="#c1981c"/><path d="M989.1,542.475a8.072,8.072,0,0,1-1.324-.115,15.1,15.1,0,0,1-1.962-.446c-.347-.1-.651-.221-.92-.324-.168-.064-.32-.123-.458-.168-.369-.136-.575-.232-.575-.232l-.532-.249.526-.261c.022-.012.564-.279,1.329-.573a10.481,10.481,0,0,1,2.606-.675,6.493,6.493,0,0,1,.662-.034,5.567,5.567,0,0,1,1.2.127,3.567,3.567,0,0,1,.871.32,7.475,7.475,0,0,1-.225-.9,7.268,7.268,0,0,1-.1-1.893,20,20,0,0,1,.352-2.325l.082-.438c.165-.834.314-1.461.314-1.461l.144-.6.361.5s.173.24.423.646a10.084,10.084,0,0,1,.821,1.694,9.371,9.371,0,0,1,.627,2.286,6.223,6.223,0,0,1-.143,2.421,2.23,2.23,0,0,1-.94,1.345,1.729,1.729,0,0,1-.464.2,1.6,1.6,0,0,1-.289.409,2.449,2.449,0,0,1-1.48.68A6.455,6.455,0,0,1,989.1,542.475Z" fill="#c1981c"/><path d="M986.94,536.978a4.895,4.895,0,0,1-3.471-1.71,20.1,20.1,0,0,1-2.423-3.414l-.293-.521.589.1c.164.029,4.053.736,5.889,3.165a1.99,1.99,0,0,1,.373,2.2l-.061.1-.114.028a2.254,2.254,0,0,1-.489.046Z" fill="#c1981c"/></g></svg>