<svg xmlns="http://www.w3.org/2000/svg" viewBox="0 0 85.76 74.33"><defs><style>.cls-1{fill:#e60013;}</style></defs><g id="Layer_2" data-name="Layer 2"><g id="_40-50レイヤー" data-name="40-50レイヤー"><path class="cls-1" d="M35.82,73.48c-.37,0-.18.71-.22.85C36.21,74.1,35.79,73.28,35.82,73.48Z"/><polygon class="cls-1" points="41.54 71.01 41.49 71.33 42.21 70.43 41.54 71.01"/><path class="cls-1" d="M46.91,69.84c-.82-1.12-1.87.69-2.94.45L43.75,70l-.22,1.11C44.68,70.74,46,69.7,46.91,69.84Z"/><path class="cls-1" d="M50.56,71.68c-.33-.42.5-.61-.73.07l.16.08A4.62,4.62,0,0,1,50.56,71.68Z"/><path class="cls-1" d="M50,71.83c-.57.21.5.29,0,0Z"/><path class="cls-1" d="M52.55,70.7l-.61.68c.25.23,1,.05.77.35C53.41,71.22,53.14,71,52.55,70.7Z"/><path class="cls-1" d="M52.94,69.56l-.32.31C52.73,70,52.84,70,52.94,69.56Z"/><path class="cls-1" d="M51.94,70.54l.68-.67c-.18-.15-.32-.54-.33.27C52.24,69.76,52.2,70.16,51.94,70.54Z"/><path class="cls-1" d="M51.41,70.51c-.51-.14-1.1-.13-.49-.79C49.56,70.33,50,71.13,51.41,70.51Z"/><path class="cls-1" d="M46.84,68.48l-.64-.22-.36.53C46,68.53,47,68.86,46.84,68.48Z"/><path class="cls-1" d="M57.42,69.52c-.07-.27-.54-.56-.73-.86l-.41.52C56.62,69.23,57.22,69.17,57.42,69.52Z"/><path class="cls-1" d="M56.69,68.66l.61-.78C56.57,68.14,56.53,68.4,56.69,68.66Z"/><polygon class="cls-1" points="52.59 68.17 51.59 69.57 52.83 68.07 52.59 68.17"/><path class="cls-1" d="M60.52,68.13l-.18.8c.14-.42.26-.84.39-1.26Z"/><path class="cls-1" d="M62.48,67c-.08.64.88.52.68,1a3.48,3.48,0,0,0,1-1.62A1.75,1.75,0,0,1,62.48,67Z"/><path class="cls-1" d="M64.51,65.46a5.41,5.41,0,0,0-.39.92A2.23,2.23,0,0,0,64.51,65.46Z"/><path class="cls-1" d="M58.71,67.39a1.17,1.17,0,0,0,1,.41L59,67.26Z"/><path class="cls-1" d="M59,67.24l0,0,.69-.28Z"/><path class="cls-1" d="M58.63,67.43l.08,0C58.64,67.34,58.62,67.32,58.63,67.43Z"/><path class="cls-1" d="M54.92,68c.31-.57,1.07-1.41-.09-1.63C54.7,67,55.38,67.16,54.92,68Z"/><path class="cls-1" d="M57.84,66.73q-.45.12-.9.21c.1.18.37.39.23.68C57.4,67.33,57.62,67,57.84,66.73Z"/><polygon class="cls-1" points="58.14 66.32 57.84 66.73 58.17 66.65 58.14 66.32"/><path class="cls-1" d="M62.75,65.64a2.36,2.36,0,0,1,1-1,6.09,6.09,0,0,0-1.51.59C62.26,65.45,62.26,66,62.75,65.64Z"/><path class="cls-1" d="M60.91,66.39s0,0,.05-.08S60.84,66.28,60.91,66.39Z"/><polygon class="cls-1" points="67.82 61.93 67.67 61.87 67.73 61.99 67.82 61.93"/><path class="cls-1" d="M62.06,65.12c-.42.06-.54.35-.63.66a4.52,4.52,0,0,1,.77-.57C62.18,65.09,62.15,65,62.06,65.12Z"/><path class="cls-1" d="M65.51,64.43a3.85,3.85,0,0,0-.83,0C65,64.54,65.55,64.64,65.51,64.43Z"/><path class="cls-1" d="M61.18,66.44l0,.06C61.34,66.58,61.29,66.52,61.18,66.44Z"/><path class="cls-1" d="M61.18,66.44a2.1,2.1,0,0,0,.25-.66,3.31,3.31,0,0,0-.47.53A1,1,0,0,1,61.18,66.44Z"/><path class="cls-1" d="M66,57.12a1.08,1.08,0,0,1-1.14,1.6c-.37.9,1.39,2.55,2.8,3.15-.16-.27-.32-.51.16-1.38-.5-.12-2.14.43-1.91-.54.73-1,.92-.35,1.61-.39-.91-.41.38-1.94-.65-2.8l-.48,1C66.26,57.58,66.34,57.1,66,57.12Z"/><path class="cls-1" d="M66.18,62.81l-.26.28a3.48,3.48,0,0,1,1.64.07c.33-.66.28-1,.17-1.17-.52.35-1.06.66-1.59,1Z"/><path class="cls-1" d="M64.49,64c-.16-.82.42-1.56-.49-2-.89.6-.3.94-.68,1.57,1.4-1.08-.22.64,1.11.35a4.11,4.11,0,0,1-.72.68,5.51,5.51,0,0,1,1-.18l-.06,0h0c-.11,0-.17-.08-.06-.08s0,0,0,0a1,1,0,0,1-.08-.29c.52-.13.17.13.08.29s0,.08,0,.11h0c.44-.44.88-.87,1.3-1.33A5.72,5.72,0,0,0,64.49,64Z"/><path class="cls-1" d="M55,64.51a.22.22,0,0,1,.12.14C55.2,64.52,55.21,64.45,55,64.51Z"/><path class="cls-1" d="M55.83,64.67c-.07.14,0,.47-.43.55-.41-.08-.15-.34-.27-.57-.13.28-.55.85.29.9l.07-.15c.73,0,1.94.5,1.87.64A6.61,6.61,0,0,0,55.83,64.67Z"/><path class="cls-1" d="M60.06,64.32c.37-.33.73-.67,1.09-1l-1-.24.23.34C59.63,63.64,60,64,60.06,64.32Z"/><polygon class="cls-1" points="68.18 62.15 68.5 62.93 68.53 61.48 68.18 62.15"/><polygon class="cls-1" points="69.7 60.87 70.09 61.48 70.23 60.81 69.7 60.87"/><path class="cls-1" d="M25.19,12.58l-.26.34A1.14,1.14,0,0,0,25.19,12.58Z"/><path class="cls-1" d="M27.7,11.68l-.06-.35C27.59,11.55,27.59,11.7,27.7,11.68Z"/><path class="cls-1" d="M79.69,15.72c.18-.94.55-2.23,0-1.69l-.52.63A1.55,1.55,0,0,1,79.69,15.72Z"/><path class="cls-1" d="M50,4.92l.15.26.47-.71Z"/><path class="cls-1" d="M49.31,8.11c-.23-.19-.46-.39-.69-.56A3.06,3.06,0,0,0,49.31,8.11Z"/><path class="cls-1" d="M14.64,21.28l.36.8C15.39,21.61,14.91,21.56,14.64,21.28Z"/><path class="cls-1" d="M81.92,44.4a3.33,3.33,0,0,0,.94-1.23C82.21,43.71,81.39,44,81.92,44.4Z"/><path class="cls-1" d="M23.14,4.47c-.2.23-.25.42-.18.58C23.17,4.82,23.26,4.63,23.14,4.47Z"/><path class="cls-1" d="M83.36,41.52a3.19,3.19,0,0,0-.26.26,3.05,3.05,0,0,1-.24,1.39C83.33,42.77,83.75,42.24,83.36,41.52Z"/><path class="cls-1" d="M25.85,58.71s.08.06.1.11S25.93,58.7,25.85,58.71Z"/><path class="cls-1" d="M42.13,67.22a3.19,3.19,0,0,1-.69.07A1,1,0,0,0,42.13,67.22Z"/><path class="cls-1" d="M75.82,55.59c-.25.35,0,.11,0,0Z"/><path class="cls-1" d="M72.17,55a.55.55,0,0,0-.16-.38A.72.72,0,0,1,72.17,55Z"/><path class="cls-1" d="M79.42,36.54v0C79.26,36.6,79.3,36.58,79.42,36.54Z"/><path class="cls-1" d="M75.12,55.83a2.18,2.18,0,0,0,.54-.25A3,3,0,0,0,75.12,55.83Z"/><path class="cls-1" d="M75.45,56l-.31.23C75.2,56.37,75.29,56.39,75.45,56Z"/><path class="cls-1" d="M76.17,55.1a2.1,2.1,0,0,1-.51.48c.1,0,.15,0,.16,0Z"/><path class="cls-1" d="M6.45,42.86l0,.09C6.78,43.24,6.7,43.09,6.45,42.86Z"/><path class="cls-1" d="M67,14.05h0l0,0Z"/><path class="cls-1" d="M65.66,13.89c.94-.55,1.16-.31,1.34.1.32-.69.64-1.4.94-2.1C67.15,12.54,66.39,13.21,65.66,13.89Z"/><path class="cls-1" d="M19.89,15.7l1.07.14c-.18,1.5-.94,1.51.22,1.94-.65-1,0-1.51.57-2s1.3-.84.78-2l.72.2c-.15.05-.11.19-.25.24,1.43.56-.1-2,1.39-2.25.54,0,1,.16.8.56.26-.33.54-.64.82-1,.32-.08.4.35.08.42.51-.26,1-.54,1.54-.77v.07a7.81,7.81,0,0,1,.65-1.52c.53.19-.13.32.07.58.24-.3.5-.59.76-.86.56.5,0,1.29-.69,1.43,1.57,2,.59-.83,2.84,0l-.78.55c.92,1.17,1.45.51,2.61,1.13-.31-.39-2.48-1.65-1.63-2.48.34.11.73.11,1.17-.51.2.85.68.5,1.35.33l.18,1.14c.65-.47.49-1,.82-1.63.84-.05,1.16.83,1.47,1.54,1.32,0-1.13-1.28.39-1.73C38,9.55,38.7,9,40,8.19c.81.34-.08.71.23,1l.61-1c.18,0,.14.3.12.44.56-.4,0-1.15.88-1.53.09-.65.61-.2,1.22.22s1.3.81,1.87.11c.28.33-.13.7,0,1.15a10.23,10.23,0,0,0,2.69-1.9l1.07.82c-.76-.9.34-1.9,1.37-2.63a8,8,0,0,0-.66-1l1.61-.47c.17.21,0,.58-.33,1a2.81,2.81,0,0,0,.31-.25c.51.48.14,1.11-.31,1.72l-.47-.76a3.9,3.9,0,0,0-.82,2.08,1,1,0,0,1,.5-.27.71.71,0,0,0-.15.47c0,.12.21-.12.48-.39l.2,1.31.13-.5c.6.32,1.18.68,1.75,1,.75-.56,1.5-1.25,2.36-1.79a5.15,5.15,0,0,1,3-.94c-.77.78-.48,1.46-.79,2.54-.14-.65-.58-.63-1.1-.51a2.54,2.54,0,0,1-1.64.17.51.51,0,0,1,.13.89c.7-.23,1.42-.47,2.13-.64-.25.87.25.76.64,1.25,0-.92.47-1.13,1-1.13a5.74,5.74,0,0,0,1.64.08c-.15.59-.52,1.12-1.39.7.59,1.61,2-1.63,2.61-.15-.23-.07-.32-.2-.51.06.71-.32,1.85.56,1.34.94l-.22-.07c1.38.75,4.21,2,5.19.86a18.52,18.52,0,0,1-1.35,1.7,32.93,32.93,0,0,1,5.26-2.69A15.29,15.29,0,0,0,69,12.51c-.59.87-1.25,1.59-2,1.53a1.29,1.29,0,0,0,1.27.86c-.07-.29.67-1.87,1-1.76a13.52,13.52,0,0,0,.06,2.71c-.09-.44,1.61-1.73,2-1.24-.28.15-1.38,1.5-1.67,1.51.78-.16,1.6-.28,2.45-.38-.53,0-1.29,1.14-1.51,1.73.23-.39.73.94,1.12,1.09v-.75c.38.71,1.2.57,2,.5s1.73-.13,2.16.65c-.48,0-2.44.91-2.29,1.74a17.48,17.48,0,0,1,3.2-.35,5.18,5.18,0,0,1,3.49.95l-.42.52c.38.33.7.69,1.06,1.05-.87-.17-2.24-.52-3.65-.77s-2.7-.46-3.53-.59c-.15.73-.51.44-.12,1.2-.4.5-.93-.07-1.09-.25.2.6.27,1.25.42,1.85,1.14-.54,1.61,1,2.56.65l-.93-.87c-.32-.27-.67-.52-1-.77A3.38,3.38,0,0,1,76,23.26a2.28,2.28,0,0,1,1.67,1.67c-.34.5-2.16.29-2.54.45.49,0,1.12,1.16.86,1.36l-.76-.46c-.14.44.32.67.7,1s.7.63.17,1.22c0,.37-1.42,1.19-.7,1.17,1.31-.67,5.53-1.4,6.62-1.06,0,.08-.3.67-.64,1.28a6.09,6.09,0,0,1-1.17,1.47c-1.06.65-2.62-.83-3.53-.25a1.54,1.54,0,0,1,.89.45c-.27.38-1-.12-.85.68,1.27.13-.14,1.66,1.06.38.32.82-.29.86-.27,1.8.83-.27,2.63,1.07,2.87,2a1.63,1.63,0,0,0-.93.12,10.7,10.7,0,0,1-.75,2.13,10.13,10.13,0,0,0-.82,2c-.34.06-.92.68-1.32.21.14.27.47.6.35,1.08-1.3.52.18-1.07-1.25-.82.68.29.51,1.48.65,2.3,1.09.23.83-1.44.59-2.24a3.49,3.49,0,0,1,1.83,1.53,5,5,0,0,1,.62,2.7c-.31,1.51-1.17.16-1.08.48A3,3,0,0,0,78,48.6a1.56,1.56,0,0,1-.78,2.11c-1.31.23-1.62-1.06-2.31-1.28.32-1.15,1.5-1.13,1.85-1.85-.3.2-.58.41-.88.59-.08-.47.07-1.25.52-1.47-.56.1-1.11,1-1.85,2A8.49,8.49,0,0,1,72,51.36c0,.47-.12,1.17.36,1.2l.31-.58c1,.05,0,1.65.84,1.25-.17,1-.23,2.4-1.47,3l-1-.62c.24.21,1.06-.1,1.06-.59,0,.73-2.39.26-1.82,1.69.39,0,.77,0,1.16,0-.26,1-.36,2.67-1.49,3.15,1.11.51.13-.25,1.59.17-.79-.36-.21-.84.31-1.3s1-.92,0-1.12c1.63.48,1.51-.53,3.19-.5-.29-.23-.78-.19,0-.8a1.39,1.39,0,0,1-.09-.38l.07,0h-.07c0-.07,0-.08,0,0a1.35,1.35,0,0,1-.75,0,2.13,2.13,0,0,1,.28-1.45A4,4,0,0,0,75,53.1c.5-.33.17.45.67.45,0-.34,0-.66,0-1,.67.45,2-.44,1.54,1l.79-1a2.57,2.57,0,0,0,1.61-1.87c.49-.42,0-1.79.3-1,.18-.68.4-1.33.53-2l.19.07a10.5,10.5,0,0,0,.85-3,5.08,5.08,0,0,1,1.61-2.94,4.86,4.86,0,0,1,.37-2.49l.73-.08a4.7,4.7,0,0,1,.46-1.65c.19-.58.3-1.12,0-1.34a1.66,1.66,0,0,0,1-1,4.65,4.65,0,0,0,.16-1.62,26.09,26.09,0,0,1-.26-3.15h-.91a8,8,0,0,0-.91-3.26l-.78.2a2.94,2.94,0,0,1-.35-2c0-.41.06-.84.06-1.29a4.48,4.48,0,0,0-.26-1.29c.34,0,.39.48.31.84a2.8,2.8,0,0,0-.89-3.18,10.32,10.32,0,0,1-1.08-1.3,2.09,2.09,0,0,1-.43-1.49,1,1,0,0,1-.56-1,.19.19,0,0,0,.1.08,1.47,1.47,0,0,0-.09-.17c0-.26,0-.53,0-.8a2.31,2.31,0,0,0,0,.71,5.13,5.13,0,0,0-1.1-1.08l.58-.69L79,14.57c0-.66-.58-.13-1,.49a2,2,0,0,0-.84-.27c.83-1.2-1.25-.79-.49-2.22-.79.21-2.3-1.64-3.56-.66.12-.16.07-.33.29-.15-.31-.51-.64-1-1.31-1l.51-1c-.64.11-1.3.26-1.92.41-.2-1-.26-1.51.87-1.73a9.31,9.31,0,0,1-1.88-.21,4,4,0,0,0-1.66,0l.42-.57c-.49-.29-1.73.18-1.74-.51-.22-.9-1.6-1.62-3.23-2.31a25.34,25.34,0,0,1-4.93-2.31c.09,2.19-1.21-1.27-1.71.29-.07-.53-.45-.88.15-1.21-1.68.17-2.29-1.27-3.61-.05-.11-.52.45-.67.33-1-.14.09-.57.36-.7,0s.3-.38.59-.56c-1.7-.17-2,1.36-2.31,2.78-.73-.76-1.16-.71-1.81.18-.24-.49-.69-1,.33-1.11-.55-.13-3.43-.9-3.51.28-.17-.29-.78-.09-.93,0a9.38,9.38,0,0,0-2.59,0l.34.18c-.43,1.41-1,.32-2,.56V2.75c-2.33-.82-.92.51-3.25-.37l.21.84c0,.94-.5.72-1.18.38s-1.52-.76-2.1-.31l.54.41c-.57.72-2.38-2.15-3.18-2.23-.19-.12.2-.3.4-.46-2.13-.69,0,1.14-1.36,1.7-.39-.53,0-1.59-1-1.47-.29-.18-.87.45-1.55,1.06s-1.45,1.18-2.25.81c.42.36.82.73.3,1.26a4.48,4.48,0,0,1-2,0c-.74-.05-1.41.11-1.57,1A.57.57,0,0,1,23,5.05c-.59.61-2.09,1.6-2.16,2.5-1-1.18-1.93-.26-2.73.62s-1.39,1.85-2.15.68A17.94,17.94,0,0,0,14,10.4l-.12-.27a2.39,2.39,0,0,0-1.35,2.56c-.38.11-.37-.26-.44-.39-2,1.15-2.2,1.44-2.4,3.77l-.81-.43c0,.36-.8.73-1.63,1.42A7.49,7.49,0,0,0,6,18.27a3.25,3.25,0,0,0-.69,1.66.62.62,0,0,1-.21-.43,3.84,3.84,0,0,1-1,1.83c-.43.57-1,1.12-1.42,1.65a3,3,0,0,0-.86,1.63,1.69,1.69,0,0,0,.85,1.56A14,14,0,0,0,2.91,28c.86-1.91,1.24.73,2,.08,0,.79-1.49,1.69-1.39.7l.2-.1c-1.52-.84-1.3,2.32-2.34,2C1,32.78.53,34.84.25,36.93a23.24,23.24,0,0,0-.07,6.23l1.21-.66.19,1.36c-.23.41-.91.69-1.06-.31-.63.67,1,1.54,1.23,1.48-.11,2-1.66-.39-1.56.19l.27.8.11-.22c.68.52,1.27.41,1.54,1.57,0,.8-.66.62-.62.92-.09,0-.1.14.1.46.12.59.35,1.16.53,1.74l.7-1.05c.77.54.55,1.55,1.35.36-.64.88-.11,2.47.7,3.88.41.7.88,1.34,1.25,1.87a3,3,0,0,1,.66,1.16A6.56,6.56,0,0,1,9.71,58.9.72.72,0,0,1,11,58.37c-.94.77-.72,1.32-.27,1.92a3.16,3.16,0,0,1,1.09,2.16c-.06-.73.71-.3,1.45,0s1.46.43,1.27-.61c.76.63-.38.85,0,1.68a9.6,9.6,0,0,1,3.58,1.38,10.63,10.63,0,0,0,3.92,1.47c.1-.3-.24-.87.43-1.21.36.61.75,1.24,1.14,1.83.58-.06.79-1.71,1.6-.48-.1-.28-.24-.71.13-.76,2.53,1.13,5.28,1,7.92.92s5.27-.07,7.85,1.34c-.7-.6-.24-.67.29-.7-.35-.14,0-.78-.08-1.21l2.15,1.17c.38-1.2,2.27-.11,2.49-1.24l-.67.2c.89-1.35-1.28-3-1.17-4.7-1,1.54-2.7-2.23-4.32,0-.36-.35.31-.56.11-1-.41.75-.91.91-1.84.58l.1-.18c-2.6.19-3.72-.54-6.52-1.14l.17.86a1.8,1.8,0,0,1-1-.65c-.78,1.26,1.7.17,1,1.56-.73-1.75-4.34-.32-4.63-2.38-.89-.13.14,1-.76.89l-.17-.56-.32.65a1.31,1.31,0,0,1-.71-1.37c.13.08.42-.06.57-.07-.64-.73-2.09-.17-2.31-.42l.76.49A11.77,11.77,0,0,1,20.59,58,14.08,14.08,0,0,0,17,57.23l0,.44c-.94-.08-1.2-.37-1.41-.7a2.73,2.73,0,0,0-1.26-1.13l.11,0A1.56,1.56,0,0,1,13,55.35c.65,0,0-1.27.79-1.23-.89-.32-1.18-.37-1.44-.32a4.8,4.8,0,0,1-1.56.23l.33-.64c-.72,0-1,.2-1.74-.52.92.34.49-1.08,1.61-.79a2,2,0,0,0-1.14-2c-.55-.37-.92-.76-.14-1.6-2.08-.08-.19,2-.75,1.71-.16.33-.56.33-.94.14a1.54,1.54,0,0,1-.77-.93c-.14-.32.3-.84.7-1.43a2.4,2.4,0,0,0,.49-2c0,.16.17.13.21.28.28-.71-1-.95-.43-1.87-1.23-.12-.14-1-1.57-.75l.31.72.38.69c-.65-.69-2.37-1.21-1.9-2.82a2.86,2.86,0,0,1,1,.67c.34-.48-.44-.74-.08-1.24,1.41-.1.67,1.76,1.9,2.4.51-.55-1.34-1.43.26-1.31-1-.11-1-.53-1-1s.2-1-.61-1.44h.85c-.15-.16-.59-.48-.6-.79l1.17.46c-.51-.38-.38-.81-.11-1.22s.57-.81.31-1.21c0,1.68-1,.39-1.65,1.15-1.12-2.22,2.13-1.27,2-3.55.09.32-.62,1.14-1,.62a2.55,2.55,0,0,1,1.06-1.21C9,33,8,34.63,7.56,33.91c1.14-.38-.27-.83-.46-1.62l.85.17c.42-.84,0-1.05-.36-1.26s-.79-.38-.23-1.12c.32.34.64.68,1,1l-.07-.91.91.44A1.86,1.86,0,0,1,9,29.44a3.32,3.32,0,0,1,.6-.9,1.17,1.17,0,0,1-1.15-1.46c.69-.33.62.6,1-.52.36.46.9,1,0,1.14.24.15.41.44.66.59a1.07,1.07,0,0,0,.61-.81c.11-.32.15-.66.24-.84a.81.81,0,0,1-.38.31c-.13-.65-.24-1.33-.35-2,.4-.08.54.24.68.54.06-.35-.19-.75,0-1.21.56.47,1.18.79,1.16,1.54,0-.57.06-1.12.1-1.7.32.07,1.12-.22,1.23.09.37-.25.4-.83.46-1.46s.14-1.33.74-1.57a.68.68,0,0,1,0-.55c.42-.35.94-.56,1.36-.87a1.93,1.93,0,0,0,1-1.46c.46.15.91.3,1.35.46.58-.84-1.82-.59-.81-2,.7-1.07,1,.56,1.56.59a4.8,4.8,0,0,1,.27-1.57A1.19,1.19,0,0,1,20.63,15C20.46,15.44,20.12,15.44,19.89,15.7Zm11.55-5.55c-.21.23-.55.92-.86.47C30.59,9.59,30.94,10,31.44,10.15ZM51.87,6.81c-.24.26-.52.06-.83-.29A.93.93,0,0,1,51.87,6.81Zm26.29,44.6s0,0,0,0C78.81,51,78.56,51.1,78.16,51.41Zm-1.15,1a.27.27,0,0,0,.25.28c-.12-.22.06-.48.33-.74C77.34,51.86,77.11,51.91,77,52.37Zm-75.17-4L2,48C2.4,48.53,2.13,48.43,1.84,48.34Z"/><path class="cls-1" d="M49.39,7.74a1.55,1.55,0,0,1-.07-.48C49.21,7.39,49.19,7.56,49.39,7.74Z"/><path class="cls-1" d="M14.57,21.13l0,0a.64.64,0,0,0,.1.13Z"/><path class="cls-1" d="M76.22,31.55a1.14,1.14,0,0,1,.43-.48C76.44,31.07,76.27,31.18,76.22,31.55Z"/><path class="cls-1" d="M73,59.06l.52-.81a1.07,1.07,0,0,1-.8.37C72.85,58.76,73.18,58.85,73,59.06Z"/><path class="cls-1" d="M63.69,59.49c0,.16-.21.15-.25.31l.25.32C64.11,59.81,64.22,59.34,63.69,59.49Z"/><path class="cls-1" d="M70.41,57.47c-.54-.5-.78,0-1.15.55,0,0,0-.06.08-.07C69.86,58.85,70.14,58.15,70.41,57.47Z"/><path class="cls-1" d="M69.17,58.13a1.65,1.65,0,0,1-.43.36C69,58.85,69,58.41,69.17,58.13Z"/><path class="cls-1" d="M76.27,54.11c-.34.12.6.75.25.69C77,55.66,77,52.5,76.27,54.11Z"/><polygon class="cls-1" points="68.45 55.98 69.2 56.52 68.97 55.76 68.45 55.98"/><path class="cls-1" d="M72.21,53.24l-.82.52c.12.09.1.24,0,.4C71.86,53.75,72.42,53.41,72.21,53.24Z"/><path class="cls-1" d="M71.44,54.16c-.21.21-.42.41-.43.64A1.93,1.93,0,0,0,71.44,54.16Z"/><polygon class="cls-1" points="69.22 54.95 69.54 54.9 70.05 54.49 69.22 54.95"/><path class="cls-1" d="M78,44.93c.08-.35.11-.71.17-1.06-.25-.21-.53,0-.56.37S77.63,44.94,78,44.93Z"/><path class="cls-1" d="M74.39,46.45c.29-.13.48,0,.81,0l-1-.57Z"/><path class="cls-1" d="M75.45,43.88c-.22-.22-.28-1.59-.68-.49C75,43.59,74.84,44.55,75.45,43.88Z"/><polygon class="cls-1" points="79.23 29.91 79.26 30.16 81.09 29.99 79.23 29.91"/><path class="cls-1" d="M71.39,20.14c.16,1,1.07-.43,1.1.59.5,0,0-.84.42-.85C72.18,19.62,72.23,19.23,71.39,20.14Z"/><path class="cls-1" d="M72.91,19.88a1.83,1.83,0,0,0,.41.12A1.27,1.27,0,0,0,72.91,19.88Z"/><polygon class="cls-1" points="44.94 68.18 45.7 68.56 45.2 67.94 44.94 68.18"/><path class="cls-1" d="M46.38,66.81,46.56,68,47,66.92C46.84,67,46.51,67.07,46.38,66.81Z"/><path class="cls-1" d="M33.87,12v-.29c-.17-.28-.33-.27-.66-.24Z"/><polygon class="cls-1" points="24.86 13.98 25.01 13.94 24.31 13.1 24.86 13.98"/><path class="cls-1" d="M19.48,18.84c.25-.14.36-.53.61-.67C19.73,18.7,18.59,17.86,19.48,18.84Z"/></g></g></svg>