<svg xmlns="http://www.w3.org/2000/svg" width="181.541" height="526.353" viewBox="0 0 181.541 526.353"><g transform="translate(-313.792 -4233.187)"><path d="M444.613,4251.744s2.718,11.224,2.4,29.157-1.185,32.082-1.185,32.082l-22.512-1.5-1.921-21.936,3.682-12.65Z" fill="#243347"/><path d="M440.717,4339.944l-6.03,37.228s-1.192,61.9,11.609,81.3,34.65,8.961,46.56,2.682-23.063-98.95-21.917-97.978S440.717,4339.944,440.717,4339.944Z" fill="#9fb194"/><path d="M353.593,4705.285s-3.246,18.743-5.784,28.321c0,0-4.41,19.221,5.3,21.905a88.661,88.661,0,0,0,19.623,2.827s3.177-7.014.77-9.6c-3.667-3.931-4.933-31.366-3.38-45.077,0,0,1.054-7.288-5.573-8.948S356.392,4695.106,353.593,4705.285Z" fill="#f3b3b4"/><path d="M374.753,4750.251a11.593,11.593,0,0,1-2.3-4.167,16.5,16.5,0,0,1-18.845-5.141c-4.176-7.986-1.545-25.831-.727-30.851-1.276-.4-2.393,1.717-3.361,4.905-.013.02-.038.02-.05.043-4.391,8.364-4.731,20.227-5.176,29.454a.574.574,0,0,0,.82.551c.3,5.876,1.952,10.761,5.586,11.765,9.9,2.738,23.661,2.729,23.661,2.729S377.21,4752.885,374.753,4750.251Z" fill="#ba6c62"/><path d="M431.722,4706.572s-.245,19.02-1.238,28.879c0,0-1.318,19.676,8.69,20.793a88.675,88.675,0,0,0,19.824-.308s2.028-7.428-.756-9.6c-4.242-3.3-9.826-30.193-10.458-43.978,0,0-.111-7.363-6.916-7.955S432.878,4696.078,431.722,4706.572Z" fill="#f3b3b4"/><path d="M459.719,4747.631a11.609,11.609,0,0,1-2.93-3.752,16.5,16.5,0,0,1-19.42-2.1c-5.385-7.226-5.606-25.263-5.591-30.349-1.323-.193-2.092,2.073-2.543,5.374-.01.022-.035.025-.044.05-3.015,8.954-1.477,20.721-.458,29.9a.574.574,0,0,0,.9.415c1.227,5.754,3.627,10.317,7.374,10.735,10.212,1.139,23.8-1.043,23.8-1.043S462.561,4749.843,459.719,4747.631Z" fill="#ba6c62"/><path d="M470.924,4327.707c-1.479-4.594-3.74-10.079-6.946-13.552-8.25-8.939-17.9-3.666-20.883,8.127l2.817,36.97s1.523,3.921,3.525,9.645a152.794,152.794,0,0,1,26.855-9.589C475.008,4347.307,473.232,4334.872,470.924,4327.707Z" fill="#b9a0cb"/><path d="M449.437,4368.9a251.083,251.083,0,0,1,7.786,26.127c1.473,6.6,9.706,3.914,12.994,4.279,7.416.823,8.68-7.8,8.68-7.8s-.837-15.688-2.605-32.2A152.794,152.794,0,0,0,449.437,4368.9Z" fill="#f3b3b4"/><path d="M460.669,4311.822c-7.02-6.992-36.584-7.391-40.8-7.707v-.028c-.042,0-.115.011-.161.013s-.12-.012-.161-.013v.028c-4.221.316-36.544,5.547-42.793,15.81-2.947,6.5-.053,45.61,10.565,73.239,4.146,18.972,3.346,33.652,2.9,37.321,16.718,10.037,42.263,10.037,58.981,0-.448-3.669.328-26.006,4.475-44.978,5.627-14.458,9.187-19.181,9.187-19.181C462.856,4356.273,463.616,4318.321,460.669,4311.822Z" fill="#b9a0cb"/><path d="M426.031,4452.326l5.295,101.978s-3.7,44.274-21.273,45.749c-17.41,1.462-27.052-17.474-27.052-17.474l-12.47-99.521s-5.578-47.263,15.125-56.546C414.569,4413.547,426.031,4452.326,426.031,4452.326Z" fill="#447da9"/><path d="M469.822,4466.146l-6.061,101.936s-.736,21.448-18.359,20.963c-17.465-.48-18.508-22.776-18.508-22.776l-12.346-93.064s3.136-39.014,24.741-45.941C469.463,4417.59,469.822,4466.146,469.822,4466.146Z" fill="#447da9"/><path d="M386.545,4384.894l-13.212,51.83s15.921,11.907,45.287,10.36,45.806-13.325,45.806-13.325l-10.585-34.216,1.995-24.313-20.075-7.948-20.076,4.646Z" fill="#b9a0cb"/><path d="M442.183,4305.84s12.523,52.966,12.378,84.921c7.514-12.26,7.714-47.093,7.714-47.093s-6-25.608-12.838-36.56C446.53,4305.127,442.183,4305.84,442.183,4305.84Z" fill="#9fb194"/><path d="M420.886,4593.83l-47.657,115.806c-1.909,5.88-17.918,2.611-22.646-1.659,0,0,13.739-102.362,35.929-151.227C395.5,4536.963,429.976,4563.2,420.886,4593.83Z" fill="#447da9"/><path d="M427.28,4559.194c-10.346,51.911-2.9,98.119,1.18,153.842,5.655.6,16.914.368,22.243-.745l13.354-146.4C465.939,4534,431.529,4537.88,427.28,4559.194Z" fill="#447da9"/><path d="M410.135,4290.045l-.384,13.437s-.04,4.637.011,4.675c.464.342-.553.617.5,1.5,5.365,4.519,15.3,4.145,19.474-1.49a2.836,2.836,0,0,0,.427-.713l-1.367-17.414Z" fill="#f3b3b4"/><path d="M398.367,4251.933s-3.244,15.778,3.507,29.158,11.168,17.459,23.681,15.715c19.744,3.31,19.47-22.13,18.12-36.863s-5.9-15.934-5.9-15.934S411.415,4229.389,398.367,4251.933Z" fill="#f3b3b4"/><path d="M392.384,4265.805s2.578,6.721,11.235,3.728c11.528.768,28.289-9.021,30.9-20.015,0,0,8.086,1.281,9.392,12.57,3.8-1.921.8-29.949-21.955-28.871C398.854,4234.312,389.583,4244.755,392.384,4265.805Z" fill="#243347"/><path d="M366,4357.494c-4.254,27.045-11.08,52.145-6.57,57.114,5.265,5.8,13.676,10.7,18.5-4.623,1.578-5.017,5.646-27.074,7.733-38.935C375.864,4367.59,373.935,4364.659,366,4357.494Z" fill="#f3b3b4"/><path d="M392.93,4313.306s-21.13-2.142-28.54,31.392c-.981,4.437-4.734,17.612-5.444,22.133,7.939,7.166,18.175,7.535,27.967,11C391.2,4353.45,397.935,4318.338,392.93,4313.306Z" fill="#b9a0cb"/><path d="M337.674,4474.114c8.36-9.272,32.134-41.252,37.989-56.893,7.659-20.458-5.487-29.8-13.627-21.987,0,0-19.666,37.769-36.173,73.36C330.078,4474.538,328.107,4475.858,337.674,4474.114Z" fill="#f3b3b4"/><path d="M401.532,4269.8s-3.347-7.043-5.992.336a8.722,8.722,0,0,0,10.927,11.389C402.964,4273.909,401.532,4269.8,401.532,4269.8Z" fill="#f3b3b4"/><path d="M457.662,4397.334c3.423,11.409,17.444,8.419,20.607,1.694,4.591-9.761-9.4-45.2-14.231-64.195-6.853.766-4.015-1.968-10.2,2.329C455.341,4356.346,456.024,4391.869,457.662,4397.334Z" fill="#f3b3b4"/><path d="M464.038,4334.833s-.2-6.776-2.081-10.136-8.815-8.626-12.128-8.688-8.957,1.586-11.483,4.578,7.834,8.875,7.834,8.875,1.547,11.827,10.495,12.631C467.43,4343.059,465.015,4338.921,464.038,4334.833Z" fill="#f3b3b4"/><path d="M325.863,4468.594s-9.059,4.87-11.216,9.681-.332,18.085,6.636,20.407,12.609-8.129,15.1-10.452,1.293-14.116,1.293-14.116S331.272,4468.038,325.863,4468.594Z" fill="#f3b3b4"/><path d="M409.436,4263.5s1.1,24.231,2.562,48.889a65.881,65.881,0,0,1-24.225-.267s-2.53-52.975,7.859-67.717C408.422,4248.558,409.436,4263.5,409.436,4263.5Z" fill="#243347"/><path d="M423.2,4587.912s8.007-17.117,8.13-33.608-.9-57.941-.9-57.941S425.8,4573.532,423.2,4587.912Z" fill="#3d5c7c"/><path d="M412,4291.4s5.9,6.474,17.353,5.7l.276,3.524S416.255,4301.612,412,4291.4Z" fill="#ee9497"/></g></svg>