<svg xmlns="http://www.w3.org/2000/svg" width="261.771" height="66.76" viewBox="0 0 261.771 66.76"><g transform="translate(-764.365 -2971.96)"><path d="M766.139,3035.494c87.144-27.1,177.05,1.087,258.039-50.738" fill="none" stroke="#fff" stroke-linecap="round" stroke-linejoin="round" stroke-width="2.835"/><path d="M836.253,3020.036c.053-.007.106-.014.159-.025a6.963,6.963,0,0,0,1.18-.343,1.184,1.184,0,0,1,.8-.746l.058-.019a8.534,8.534,0,0,0,1.96-3.152,1.447,1.447,0,0,0-.609-.553c-.1-.05-.2-.1-.3-.161a1.17,1.17,0,0,1-.492.151,1.087,1.087,0,0,1-.511-.055,1.473,1.473,0,0,1-.495-.222,1.6,1.6,0,0,1-.319-.313,2.442,2.442,0,0,1-1.111-3.294c-.154-.276-.309-.55-.462-.825a2.979,2.979,0,0,0-.4-2.351c-.112-.164-.228-.326-.342-.489a27.011,27.011,0,0,0-.7-2.63,12.023,12.023,0,0,0-3.6-5.919c-.028-.06-.055-.121-.083-.181-.339-.707-.806-1.328-1.207-2-.165-.685-.353-1.365-.569-2.039l-.018-.177c-.035-.39-.064-.78-.1-1.17a18.819,18.819,0,0,0-.455-2.959,11.466,11.466,0,0,0-.415-1.265,4.89,4.89,0,0,0-.043-1.052,8.956,8.956,0,0,0-.537-4.223c-.1-.24-.2-.469-.3-.689a10.815,10.815,0,0,0-.431-1.563,12.124,12.124,0,0,0-2.776-4.53c-1.13-3.069-4.626-4.587-7.945-4.578a7.2,7.2,0,0,0-2.42.159,21.489,21.489,0,0,0-3.759,1.424,23.081,23.081,0,0,0-5.72,3.8,11.715,11.715,0,0,0-4.337,7.673,8.164,8.164,0,0,0,.426,3.427,18.1,18.1,0,0,0-1.822,4.093q-.5,1.4-.894,2.841c-.473,1.134-.944,2.27-1.4,3.409-1.307,3.229-2.208,6.8-1.128,10.239.029.092.062.181.1.269a8.77,8.77,0,0,0,.5,2.013c.013.035.028.069.042.1a3.377,3.377,0,0,0-1.566,2.006q-.246.853-.483,1.709a40.355,40.355,0,0,0-2.008,6.3,34.778,34.778,0,0,0-.675,3.484,12.382,12.382,0,0,0-.375,3.544q-.434,2.369-.792,4.751a3.564,3.564,0,0,0,.612,2.978,3.519,3.519,0,0,0,.859.8h.09a1.18,1.18,0,0,1,.625-.168h45.43a7.754,7.754,0,0,0,1.283-2.852,17.85,17.85,0,0,0-.018-6.6A26.9,26.9,0,0,0,836.253,3020.036Z" fill="#fff"/><path d="M824.327,3034.777c-.007-4.634-.3-9.283.1-13.906l.012-2.733a1.751,1.751,0,0,0-.03-.318,1.749,1.749,0,0,0-2.814-1.487l-15.9-.282c-1.881-.033-2.223,2.35-1.026,3.241,0,.04-.009.08-.012.12a137.119,137.119,0,0,0,.012,15.2,4.682,4.682,0,0,0,.708,2.775h18.855a2.372,2.372,0,0,0,.656-1.595A1.146,1.146,0,0,1,824.327,3034.777Z" fill="#f0cac4"/><path d="M804.4,2988.117a3.558,3.558,0,0,0-2.221,3.45c-.079,1.973,1.019,3.624,2.462,3.724,1.274,4.867,4.757,8.413,8.988,8.582,4.366.175,8.223-3.3,9.8-8.289a2,2,0,0,0,.561.1c1.473.059,2.731-1.515,2.811-3.514s-1.049-3.669-2.521-3.728" fill="none" stroke="#070304" stroke-linecap="round" stroke-linejoin="round" stroke-width="1.05"/><path d="M824.031,2988.451" fill="none" stroke="#070304" stroke-linecap="round" stroke-linejoin="round" stroke-width="1.05"/><path d="M818.152,2991.007" fill="none" stroke="#070304" stroke-miterlimit="10" stroke-width="0.42"/><path d="M811.341,2990.868" fill="none" stroke="#070304" stroke-miterlimit="10" stroke-width="0.42"/><path d="M814,2994.623a1.151,1.151,0,0,0,1.593.042" fill="none" stroke="#070304" stroke-miterlimit="10" stroke-width="0.252"/><path d="M811.922,2997.8a18.87,18.87,0,0,1,4.679.333,1.426,1.426,0,0,1-.6.841,2.636,2.636,0,0,1-1.972.689,3.534,3.534,0,0,1-2.113-1.742" fill="none" stroke="#070304" stroke-miterlimit="10" stroke-width="0.294"/><path d="M807.653,3001.47c1.284,4.381.373,8.01-4.176,9.47" fill="none" stroke="#070304" stroke-miterlimit="10" stroke-width="0.378"/><path d="M819.974,3001.42a13.992,13.992,0,0,0-.607,5.092c.436,3.386,3.266,4.324,6.254,4.744" fill="none" stroke="#070304" stroke-miterlimit="10" stroke-width="0.378"/><path d="M789.939,3036.531c.04-4.928-.057-9.96,1.326-14.739,1.016-3.513,2.868-7.55,6.1-9.534,1.378-.844,5.128-1.8,6.423-.275.551.648.38,2.311.443,3.094.587,7.316.178,14.785.178,21.774" fill="none" stroke="#070304" stroke-miterlimit="10" stroke-width="0.378"/><path d="M818.128,2972.672a8.528,8.528,0,0,0-5.767-.008,18.6,18.6,0,0,0-5.126,2.839c-5.074,3.72-6.69,7.347-6.948,13.487-.085,2-1.033,3.16-1.9,4.859a26.085,26.085,0,0,0-2.94,9.64c-.251,3.1-.871,5.8.561,8.776" fill="none" stroke="#070304" stroke-miterlimit="10" stroke-width="0.378"/><path d="M823.192,2975.458a16.567,16.567,0,0,1,5.472,8.811c.82,3.14.014,6.445.8,9.585a29.315,29.315,0,0,0,4.155,8.731,22.948,22.948,0,0,1,1.785,2.776,9.817,9.817,0,0,1,1.037,4.25c-.037,1.594-.645,2.827.277,4.4a3.029,3.029,0,0,0,3.451,1.474" fill="none" stroke="#070304" stroke-miterlimit="10" stroke-width="0.378"/><path d="M812.812,2978.2a18.073,18.073,0,0,0,11.114,10.031" fill="none" stroke="#070304" stroke-miterlimit="10" stroke-width="0.378"/><path d="M810.841,2979.07c-.125-.158-.376-.088-.556,0a7.793,7.793,0,0,0-3.181,2.985,15.487,15.487,0,0,0-1.006,2.214l-1.535,3.909" fill="none" stroke="#070304" stroke-miterlimit="10" stroke-width="0.378"/><path d="M838.766,3036.432c.126-5.794-.029-11.695-2.2-17.131a15.45,15.45,0,0,0-4.038-5.9c-2.019-1.4-4.5-2.64-6.834-1.708a2.74,2.74,0,0,0-1.242,2.33c0,2.329-.156,4.659-.311,6.988-.155,5.126.155,10.406.155,15.552" fill="none" stroke="#070304" stroke-miterlimit="10" stroke-width="0.378"/><path d="M804.576,3016.392l18.674-.089" fill="none" stroke="#070304" stroke-miterlimit="10" stroke-width="0.378"/><path d="M811.612,3006.114a3.45,3.45,0,0,0-.608-1.8,1.832,1.832,0,0,0-.262-.3c-.042-.11-.089-.219-.139-.325a2.248,2.248,0,0,0-.2-.617,1.39,1.39,0,0,0-.591-.61,7.8,7.8,0,0,0-.665-.672,17.793,17.793,0,0,0-1.342-1.647c-.1-.205-.186-.413-.281-.619a4.465,4.465,0,0,0-.374-.686c-.062-.089-.125-.172-.189-.251.033-.04.066-.081.1-.121a1.082,1.082,0,0,0,1.083-.524c.142-.25.273-.507.391-.771l.068-.043a1.128,1.128,0,0,0,.441-1.421,1.106,1.106,0,0,0-.3-.976,1.138,1.138,0,0,0-1.069-.283,4.573,4.573,0,0,0-1.112.364,1.109,1.109,0,0,0-1.145-.847c-.012-.083-.025-.167-.04-.25a1.1,1.1,0,0,0-1.836-.486,10.835,10.835,0,0,0-1.557,2.185l-.1.144a7.163,7.163,0,0,0-.76.652,17.891,17.891,0,0,0-1.63,1.951.77.77,0,0,0-.13.332,2.667,2.667,0,0,0-.5,1.574,2.269,2.269,0,0,0,.37,1.191,1.868,1.868,0,0,0,1.2.835l.119.015a4.654,4.654,0,0,0,.551.461l2.115,1.571a1.523,1.523,0,0,0-.058.2,2.937,2.937,0,0,1,.334.2,1.978,1.978,0,0,1,.554.508.246.246,0,0,1,.3.126,4.47,4.47,0,0,1,.213.8.251.251,0,0,1,.208.317c-.076.266-.152.531-.212.8l.368.384a2.481,2.481,0,0,0-.386,1.333q-.144.338-.28.679a1.081,1.081,0,0,0,.282,1.069,1.034,1.034,0,0,0,.483.276,1.105,1.105,0,0,0,.757.315l1.508.02a6.828,6.828,0,0,0,1.659-.057,1.773,1.773,0,0,0,1.171-.967,3.073,3.073,0,0,0,.183-.555,4.118,4.118,0,0,0,.353-.787c.031-.063.06-.125.088-.189A3.386,3.386,0,0,0,811.612,3006.114Z" fill="#fff"/><path d="M808.835,3035.625a1.644,1.644,0,0,0-.261-.557c1.667-2.3,1.8-5.411,1.572-8.289a2.131,2.131,0,0,0-.276-.9q-.016-1.082-.02-2.164a72.267,72.267,0,0,0,.174-7.73,3.436,3.436,0,0,0-3.148-4.7l-1.258-.009a3.251,3.251,0,0,0-.728.08,3.348,3.348,0,0,0-1.96.018,3.527,3.527,0,0,0-2.481,3.821,7.584,7.584,0,0,0-.117,1.278c0,.273.021.546.026.819a3.513,3.513,0,0,0-.071,3.127,20.708,20.708,0,0,0-.64,4.146c-.046.8-.052,1.593-.037,2.39q-.2,1.331-.358,2.665a1.293,1.293,0,0,0,.1.673,7.136,7.136,0,0,0,.625,3.878,8.626,8.626,0,0,0,2.028,3.273,4.965,4.965,0,0,0,3.227,1.269A39.167,39.167,0,0,1,808.835,3035.625Z" fill="#fff"/><path d="M802.252,3010.986l7.043.7a.459.459,0,0,1,.529.558,90.087,90.087,0,0,0,.249,10.57,28.344,28.344,0,0,1-.784,10.715,8.076,8.076,0,0,1-4.047,5" fill="none" stroke="#070304" stroke-miterlimit="10" stroke-width="0.378"/><path d="M802.175,3011.159q-.912,2.933-2.095,5.77" fill="#fff" stroke="#070304" stroke-miterlimit="10" stroke-width="0.378"/><path d="M803.123,2999.519a3.1,3.1,0,0,1,1.342-2l2.83-2.436a1.569,1.569,0,0,1,.818-.454c.629-.063,1.09.683,1,1.309a3.434,3.434,0,0,1-.944,1.617c-1.969,2.331,1.185,3.546,2.335,5.572,1.59,2.8.111,6.278-1.689,8.693a21.8,21.8,0,0,1-5.155-1.048l1.148-3.458a2.532,2.532,0,0,0,.043-2.172,2.492,2.492,0,0,0-.867-.7l-3.651-2.129c-.572-.334-1.235-.879-1.036-1.511" fill="none" stroke="#070304" stroke-miterlimit="10" stroke-width="0.378"/><path d="M801.151,2998.961a6.107,6.107,0,0,1,1.63-2.707,13.649,13.649,0,0,1,2.609-1.989c.251-.154.609-.411.908-.229.265.161.376.591.462.867" fill="none" stroke="#070304" stroke-miterlimit="10" stroke-width="0.378"/><path d="M799.937,2998.385a4.578,4.578,0,0,1,1.147-2.268q.774-.987,1.6-1.933a2.509,2.509,0,0,1,1.2-.9c.5-.121,1.123.188,1.136.7" fill="none" stroke="#070304" stroke-miterlimit="10" stroke-width="0.378"/><path d="M823.965,2994.414a1.328,1.328,0,1,0,1.328,1.329A1.329,1.329,0,0,0,823.965,2994.414Z" fill="#b37366" stroke="#070304" stroke-miterlimit="10" stroke-width="0.656"/></g></svg>