<svg xmlns="http://www.w3.org/2000/svg" xmlns:xlink="http://www.w3.org/1999/xlink" width="514.508" height="85.65" viewBox="0 0 514.508 85.65"><defs><linearGradient id="a" x1="0.182" y1="0.171" x2="0.885" y2="0.846" gradientUnits="objectBoundingBox"><stop offset="0.006" stop-color="#8c000a"/><stop offset="0.605" stop-color="#9c000b"/><stop offset="0.987" stop-color="#c41720"/></linearGradient><linearGradient id="b" x1="0.167" y1="0.028" x2="1.02" y2="0.902" xlink:href="#a"/><linearGradient id="c" x1="0.044" y1="0.599" x2="1.051" y2="0.426" gradientUnits="objectBoundingBox"><stop offset="0.097" stop-color="#c40000"/><stop offset="0.4" stop-color="#ff5f50"/><stop offset="0.683" stop-color="#cb141d"/><stop offset="0.869" stop-color="#8b141d"/></linearGradient><linearGradient id="d" x1="0.067" y1="0.574" x2="1.067" y2="0.44" gradientUnits="objectBoundingBox"><stop offset="0" stop-color="#c40000"/><stop offset="0.225" stop-color="#ff5f50"/><stop offset="0.615" stop-color="#cb141d"/><stop offset="0.869" stop-color="#8b141d"/></linearGradient><linearGradient id="e" x1="-53.436" y1="0.171" x2="-52.734" y2="0.846" xlink:href="#a"/><linearGradient id="f" x1="-53.92" y1="0.028" x2="-53.067" y2="0.902" gradientUnits="objectBoundingBox"><stop offset="0.006" stop-color="#8c000a"/><stop offset="0.35" stop-color="#9c000b"/><stop offset="0.838" stop-color="#c41720"/></linearGradient><linearGradient id="g" x1="-20.298" y1="0.599" x2="-19.291" y2="0.426" xlink:href="#c"/><linearGradient id="h" x1="-28.513" y1="0.575" x2="-27.513" y2="0.442" xlink:href="#d"/><linearGradient id="i" y1="0.5" x2="1" y2="0.5" gradientUnits="objectBoundingBox"><stop offset="0.097" stop-color="#c40000"/><stop offset="0.4" stop-color="#ff5f50"/><stop offset="0.733" stop-color="#cb141d"/><stop offset="1" stop-color="#8b141d"/></linearGradient></defs><g transform="translate(-655.218 -5694.799)"><path d="M736.925,5700.361l1.632,9.26c-3.133,1.68-6.214,3.49-9.383,5.02-5.473,2.65-11.469,4.52-17.326,3.4a4.4,4.4,0,0,1-2.182-.9,2.95,2.95,0,0,1-.742-1.03c-.07-.2-.148-.42-.218-.63v-.01a5.332,5.332,0,0,1,.768-4.08,8.644,8.644,0,0,1,4.836-3.01,47.648,47.648,0,0,1,13.372-1.73,15.142,15.142,0,0,0,5.682-.76A5.669,5.669,0,0,0,736.925,5700.361Z" fill="url(#a)"/><path d="M765.442,5725.109a72.767,72.767,0,0,1-10.12.56c-3.35-.08-17.09-1.38-18.58-6.39a5.12,5.12,0,0,1,3.03-4.27c5.07-2.37,14.94.76,18.6.18,2.77-.44,6.04-2.17,5.64-5.66Z" fill="url(#b)"/><path d="M736.925,5700.361a5.669,5.669,0,0,1-3.561,5.53,15.142,15.142,0,0,1-5.682.76,47.648,47.648,0,0,0-13.372,1.73,8.644,8.644,0,0,0-4.836,3.01,5.332,5.332,0,0,0-.768,4.08v.01c.445,2.11,3.308,31.39,8.257,45.47-10.422,4.25-21.07,7.53-32.077,8.46-5.412.45-11.181.8-16.453-.7.017-.04.035-.09.052-.14,2.889-8.43,5.386-17.13,8.275-25.56-7.419-3.01-13.2-9.81-17.806-17.12a29.155,29.155,0,0,1-3.736-8.62,85.609,85.609,0,0,0,43.363-9.36c5.665-2.89,11.076-6.38,16.82-9.05,4.984-2.31,12.254-5.41,17.657-3.43a5.79,5.79,0,0,1,3.666,3.77l.2,1.13Z" fill="url(#c)"/><path d="M736.925,5700.331l-.2-1.13A5.786,5.786,0,0,1,736.925,5700.331Z" fill="#ff6759"/><path d="M708.706,5715.481c.07.21.148.43.218.63A4.74,4.74,0,0,1,708.706,5715.481Z" fill="#ff6759"/><path d="M758.372,5715.189c-3.66.58-13.53-2.55-18.6-.18a5.12,5.12,0,0,0-3.03,4.27c-.01.65-.01,1.31,0,1.99a74.847,74.847,0,0,0,.74,8.29,24.328,24.328,0,0,0,.69,3.17,149.226,149.226,0,0,0,4.46,16.71c2.07,6.35,4.38,12.32,6.39,17,.07.16-.06-.16,0,0-9.44,2.96-23.42,5.17-28.25,1.34-1.38-1.1-2.65-3.55-3.81-6.83-4.95-14.08-7.81-43.36-8.26-45.47.07.22.14.43.22.63a3.05,3.05,0,0,0,.74,1.03,4.419,4.419,0,0,0,2.19.9c5.85,1.12,11.85-.75,17.32-3.4,3.17-1.53,6.25-3.34,9.39-5.02a50.828,50.828,0,0,1,11.06-4.71l.27-.05a19.075,19.075,0,0,1,11.09.63,4.88,4.88,0,0,1,3.03,4.04C764.412,5713.019,761.142,5714.749,758.372,5715.189Z" fill="url(#d)"/><path d="M1120.322,5715.481c-.08.21-.17.43-.25.63A4.335,4.335,0,0,0,1120.322,5715.481Z" fill="#ff6759"/><path d="M1088.019,5700.361l-1.633,9.26c3.134,1.68,6.215,3.49,9.383,5.02,5.473,2.65,11.47,4.52,17.326,3.4a4.407,4.407,0,0,0,2.183-.9,2.951,2.951,0,0,0,.742-1.03c.069-.2.148-.42.218-.63v-.01a5.337,5.337,0,0,0-.768-4.08,8.644,8.644,0,0,0-4.836-3.01,47.658,47.658,0,0,0-13.372-1.73,15.142,15.142,0,0,1-5.682-.76A5.668,5.668,0,0,1,1088.019,5700.361Z" fill="url(#e)"/><path d="M1059.5,5725.109a72.768,72.768,0,0,0,10.12.56c3.35-.08,17.09-1.38,18.58-6.39a5.12,5.12,0,0,0-3.03-4.27c-5.07-2.37-14.94.76-18.6.18-2.77-.44-6.04-2.17-5.64-5.66Z" fill="url(#f)"/><path d="M1088.019,5700.361a5.668,5.668,0,0,0,3.561,5.53,15.142,15.142,0,0,0,5.682.76,47.658,47.658,0,0,1,13.372,1.73,8.644,8.644,0,0,1,4.836,3.01,5.337,5.337,0,0,1,.768,4.08v.01c-.445,2.11-3.308,31.39-8.257,45.47,10.421,4.25,21.07,7.53,32.077,8.46,5.411.45,11.181.8,16.453-.7-.018-.04-.035-.09-.052-.14-2.89-8.43-5.386-17.13-8.275-25.56,7.419-3.01,13.2-9.81,17.806-17.12a29.154,29.154,0,0,0,3.736-8.62,85.608,85.608,0,0,1-43.363-9.36c-5.665-2.89-11.077-6.38-16.82-9.05-4.984-2.31-12.255-5.41-17.658-3.43a5.792,5.792,0,0,0-3.666,3.77l-.2,1.13Z" fill="url(#g)"/><path d="M1088.019,5700.331l.2-1.13A5.856,5.856,0,0,0,1088.019,5700.331Z" fill="#ff6759"/><path d="M1116.238,5715.481c-.07.21-.149.43-.218.63A4.74,4.74,0,0,0,1116.238,5715.481Z" fill="#ff6759"/><path d="M1066.572,5715.189c3.66.58,13.53-2.55,18.6-.18a5.12,5.12,0,0,1,3.03,4.27c.01.65.01,1.31,0,1.99a74.877,74.877,0,0,1-.74,8.29,24.318,24.318,0,0,1-.69,3.17,149.212,149.212,0,0,1-4.46,16.71c-2.07,6.35-4.38,12.32-6.39,17-.07.16-.14.31-.2.47,9.44,2.96,23.62,4.7,28.45.87,1.38-1.1,2.65-3.55,3.81-6.83,4.95-14.08,7.81-43.36,8.26-45.47-.07.22-.14.43-.22.63a3.048,3.048,0,0,1-.74,1.03,4.419,4.419,0,0,1-2.19.9c-5.85,1.12-11.85-.75-17.32-3.4-3.17-1.53-6.25-3.34-9.39-5.02a50.826,50.826,0,0,0-11.06-4.71l-.27-.05a19.075,19.075,0,0,0-11.09.63,4.88,4.88,0,0,0-3.03,4.04C1060.532,5713.019,1063.8,5714.749,1066.572,5715.189Z" fill="url(#h)"/><path d="M1069.622,5725.671a73.031,73.031,0,0,1-10.35-.59c-1.41-.22-2.81-.45-4.22-.66q-10.935-1.695-21.9-3.12c-.03,0-.05-.01-.07-.01-7.5-1.07-15.01-2.07-22.55-2.66h-.03c-32.59-3.44-68.61-5.78-98.03-5.16-29.42-.62-65.44,1.72-98.03,5.16h-.03c-7.54.59-15.05,1.59-22.55,2.66-.02,0-.04.01-.07.01q-10.965,1.425-21.9,3.12c-1.41.21-2.81.44-4.22.66a73.03,73.03,0,0,1-10.35.59c-3.35-.08-17.09-1.38-18.58-6.39a57.282,57.282,0,0,0,.85,10.28,138.986,138.986,0,0,0,5.04,19.88c2.07,6.35,4.38,12.32,6.39,17a70.793,70.793,0,0,0,4.25,8.63c10.59,16.51,71.33-10.53,159.2-7.6,87.87-2.93,148.61,24.11,159.2,7.6a70.793,70.793,0,0,0,4.25-8.63c2.01-4.68,4.32-10.65,6.39-17a138.986,138.986,0,0,0,5.04-19.88,57.288,57.288,0,0,0,.85-10.28C1086.712,5724.291,1072.972,5725.591,1069.622,5725.671Z" fill="url(#i)"/></g></svg>