<svg xmlns="http://www.w3.org/2000/svg" width="161.747" height="526.601" viewBox="0 0 161.747 526.601"><g transform="translate(-335.115 -3838.937)"><circle cx="13.908" cy="13.908" r="13.908" transform="translate(438.367 3846.011)" fill="#5a3a41"/><path d="M409.854,3847.949s-1.381-9.013,10.493-9.012,21.759,5.443,30.8,15.785,7.4,28.742-2.62,41.48-20.772,5.661-24.307.326S409.854,3847.949,409.854,3847.949Z" fill="#5a3a41"/><path d="M397.615,3851.855c-4.007,7.549-7.932,23.326-.341,30.438,16.167,15.146,29.4,4.355,29.4,4.355s2.047-31.7-14.208-36.5C411.2,3844.843,401.858,3843.862,397.615,3851.855Z" fill="#5a3a41"/><path d="M404.648,3931.2c-2.932-11.608-9.269-17.163-17.39-8.364-3.155,3.418-6.382,10.428-7.838,14.951-5.4,16.753-11.453,65.131-11.453,65.131s-.581,12.278,9.611,13.181c3.244.287,12.567-.413,16.267-11.893,4.857-15.072,4-37.2,4-37.2Z" fill="#b9a0cb"/><path d="M390.423,3920.573c6.909-6.882,28.815-7.492,32.969-7.8v-.027c.04,0,.113.011.158.013s.118-.012.159-.013v.027c4.154.312,35.97,5.46,42.12,15.562,2.9,6.4,2.932,54.977-8.847,64.552-4.081,18.674-4.845,40.66-4.4,44.272-16.456,9.879-41.6,9.879-58.055,0,.441-3.612-.323-25.6-4.4-44.272-8.192-6.694-9.043-18.88-9.043-18.88C381.076,3964.108,387.522,3926.97,390.423,3920.573Z" fill="#b9a0cb"/><path d="M423.076,4197.9l47.362,107.7c1.878,5.789,6.125,9.745,11.909,7.856,0,0,5.22-3.753,4.366-8.99-9.041-55.445-6.808-73.131-28.649-121.229C449.218,4163.769,414.129,4167.757,423.076,4197.9Z" fill="#f3b3b4"/><path d="M408.044,4085.06,418.782,4185s1.728,21.054,19.033,19.75c17.148-1.29,17.129-23.26,17.129-23.26l7.776-92.077s-.475-28-22.042-33.8C410.559,4047.511,408.044,4085.06,408.044,4085.06Z" fill="#f3b3b4"/><path d="M487.707,4307.609s3.2,18.448,5.694,27.876c0,0,4.341,18.92-5.213,21.561a87.268,87.268,0,0,1-19.316,2.783s-3.126-6.9-.757-9.445c3.609-3.87,4.855-30.874,3.327-44.37,0,0-1.038-7.174,5.485-8.808S484.953,4297.59,487.707,4307.609Z" fill="#f3b3b4"/><path d="M466.88,4351.869a11.416,11.416,0,0,0,2.264-4.1,16.244,16.244,0,0,0,18.55-5.06c4.11-7.861,1.52-25.425.715-30.367,1.255-.393,2.355,1.69,3.307,4.829.013.019.038.019.05.041,4.323,8.234,4.657,19.91,5.1,28.992a.565.565,0,0,1-.808.542c-.3,5.784-1.92,10.592-5.5,11.581-9.748,2.695-23.289,2.686-23.289,2.686S464.462,4354.461,466.88,4351.869Z" fill="#a56888"/><path d="M379.946,4170.4l13.182,138.547c.512,6.065,3.747,10.884,9.81,10.36,0,0,5.937-2.467,6.3-7.76,3.812-56.048,17.236-95.93,6.911-147.735C411.963,4142.833,378.093,4139.009,379.946,4170.4Z" fill="#f3b3b4"/><path d="M379.946,4170.4l13.182,138.547c.512,6.065,3.747,10.884,9.81,10.36,0,0,5.937-2.467,6.3-7.76,3.812-56.048,17.236-95.93,6.911-147.735C411.963,4142.833,378.093,4139.009,379.946,4170.4Z" fill="#f3b3b4"/><path d="M386.265,4063.51l-4.17,100.425s-1.406,21.078,15.9,22.349c17.151,1.261,20.382-20.468,20.382-20.468L439.7,4075.9s3.675-27.766-16.8-36.691C394.309,4026.746,386.265,4063.51,386.265,4063.51Z" fill="#f3b3b4"/><path d="M409.5,4314.257s1.223,18.682,2.707,28.322c0,0,2.313,19.273-7.467,20.887a94.652,94.652,0,0,1-19.419.934s-2.461-7.41.165-9.686c4-3.465,8.1-30.185,8.009-43.767,0,0-.272-7.243,6.387-8.177S407.819,4304,409.5,4314.257Z" fill="#f3b3b4"/><path d="M383.851,4355.751a11.389,11.389,0,0,0,2.686-3.838,16.247,16.247,0,0,0,18.982-3.067c4.92-7.381,4.6-24.168,4.326-29.167,1.281-.083,2.127,1.1,2.7,2.979a.476.476,0,0,1,.223.28c2.886,9.784,2.291,21.29,2.342,31.39a.612.612,0,0,1-1.224,0c-.007-1.611-.017-3.236-.031-4.866-.418,7.559-2.6,14.468-7.144,15.218-9.979,1.646-23.36.417-23.36.417S381.173,4358.072,383.851,4355.751Z" fill="#a56888"/><path d="M393.793,4016.946c9.259,2.238,18.866,2.9,28.3,3.08,17.353.33,21.251-1.734,32.054-2.442,0,0,13.82,23.458,16.453,47.784,4.692,43.329,2.064,86.468,3.382,99.725-30.34,17.27-82.545,10.5-99.349-1.4-1.966-23.189-3.887-51.958.749-94.941C378.3,4041.773,393.793,4016.946,393.793,4016.946Z" fill="#b9a0cb"/><path d="M432.273,3898.89l.378,13.226s.04,4.564-.011,4.6a56.439,56.439,0,0,1-12.293,7.845c-4.057-.968-7.4-7.248-7.788-8.532l1.344-17.14Z" fill="#f3b3b4"/><path d="M435.78,3914.791l-1.716-5.035-1.525-1.55s.3,8.452-12.192,16.356c.661,4.971,4.847,6.15,6.594,5.171A16.946,16.946,0,0,0,435.78,3914.791Z" fill="#447da9"/><path d="M420.347,3924.562a28.592,28.592,0,0,1-7.194-16.107c-1-.006-1.979,1.355-1.979,1.355l-1.382,3.646C407.9,3920.516,412.135,3937.082,420.347,3924.562Z" fill="#447da9"/><path d="M445.712,3861.376s3.192,15.531-3.453,28.7-13.609,16.167-25.926,14.451-16.547-20.765-15.218-35.266,5.808-15.685,5.808-15.685S432.869,3839.186,445.712,3861.376Z" fill="#f3b3b4"/><path d="M406.88,3851.586l11.259-3.321,14.988-.316,14.315,7.647,1.08,7.385-1.614,12.422s-5.17,5.209-6.66,6.879c-3.577.529-3.07-19.463-3.07-19.463s-7.321-14.349-25.473-7.35c-1.689-1.213-3.39-2.414-5.021-3.686Z" fill="#5a3a41"/><path d="M450,3921.785s21.893-3.1,26.469,29.463c4.346,30.93,11.69,64.541,6.508,70.248s-19.654,1.529-24.4-13.558S442.673,3929.149,450,3921.785Z" fill="#b9a0cb"/><path d="M466.208,3972.825l-1.934,26.07-13.221-3.3Z" fill="#927ab0"/><path d="M1.97,0H54.378a1.97,1.97,0,0,1,1.97,1.97V83.4a1.971,1.971,0,0,1-1.971,1.971H1.97A1.97,1.97,0,0,1,0,83.4V1.97A1.97,1.97,0,0,1,1.97,0Z" transform="matrix(-0.966, -0.258, 0.258, -0.966, 445.856, 4049.03)" fill="#3d5c7c"/><path d="M415.086,3990.377s-2.829-7.653-5.437-8.619-5.625-1.947-6.986.123-5.334,10.714-3.89,16.1c.954,3.565,11.7,5.408,11.7,5.408S415.5,3994.1,415.086,3990.377Z" fill="#f3b3b4"/><path d="M411.139,3994.146a20.745,20.745,0,0,1,3.914-5.522s2.975.485,7.655,1.317c-8.488,4.425-6.768,10.238-6.452,17.4-2.133-1.1-5.249-2.079-7.454-3.313C408.8,4004.031,407.74,4002.153,411.139,3994.146Z" fill="#447da9"/><path d="M422.708,3989.941c12.1,2.153,35.607,6.64,48.726,11.15,20.333,6.99,12.921,27.7,1.875,26.549,0,0-24.732-.736-59.063-18.417C413.929,4002.057,414.22,3994.366,422.708,3989.941Z" fill="#b9a0cb"/><path d="M359.755,3943.934a23.525,23.525,0,0,1-.408-2.946c-.082-1.388,1.143-6.859,0-10.125s-3.361-13.245-6.151-12.983c-1.9.179-.351,4.391.19,7.431,0,1.877-5.062-10.114-7.675-10.814s-10.233,1.709-10.56,7.833,1.524,16.875,8.274,22.427c4.491,5.879,3.756,7.743,3.756,7.743S359.673,3947.779,359.755,3943.934Z" fill="#f3b3b4"/><path d="M353.665,3943.7a20.739,20.739,0,0,1,6.743-.578s1.552,2.584,3.939,6.7c-8.86-3.622-12.187,1.445-17.453,6.314-.54-2.339-1.8-5.351-2.285-7.831C344.609,3948.3,345.356,3946.272,353.665,3943.7Z" fill="#447da9"/><path d="M365.449,3948.874c6.17,10.626,17.928,31.473,22.958,44.4,7.8,20.038-12.8,27.756-19.058,18.579,0,0-15.412-19.358-24.085-56.987C350.529,3950,356.589,3945.252,365.449,3948.874Z" fill="#b9a0cb"/><path d="M441.529,3878.965s3.294-6.933,5.9.33a8.586,8.586,0,0,1-10.755,11.211C440.119,3883.007,441.529,3878.965,441.529,3878.965Z" fill="#f3b3b4"/><path d="M450.533,3875.031s-3.228,4.23-11.748,1.284c-7.7-2.661-23.45-12.2-28.719-18.326,0,0-8.664-1.222-9.185,15.078-7.812-4.954,1.031-30.98,23.432-29.919C447.053,3844.226,453.29,3854.311,450.533,3875.031Z" fill="#5a3a41"/><path d="M413.519,3903.786s6.933,3.473,16.921-.423c-3.349,4-9.325,6.226-17.2,3.942Z" fill="#ee9497"/><path d="M391.98,3934.741a80.594,80.594,0,0,1-2.449,17.759c-2.45,9.676-2.45,21.352,4.262,28.538v35.908l-3.648-36.286s-7.23-5.093-3.84-20.879S391.763,3943.015,391.98,3934.741Z" fill="#927ab0"/></g></svg>