<svg xmlns="http://www.w3.org/2000/svg" width="165.545" height="526.352" viewBox="0 0 165.545 526.352"><g transform="translate(-100.757 -4835.424)"><path d="M224.846,4881.276s-.278,8.313,4.843,11.581,10.4,7.4,10.94,18.51c.5,10.275-2.05,18.212-16.572,21.476s-59.9,4.24-61.861-13.22,10.724-20.516,14.137-31.984,5.108-30.681,5.108-30.681S221.737,4859.084,224.846,4881.276Z" fill="#5a3a41"/><path d="M132.987,4966.182s-1.614-7.877-5.276-10.334-9.83.05-14.36-1.414c-7.4-2.394-4.188,11.585-4.188,11.585s6.238,12.5,16.387,11.98l5.342,1.957s7.5-2.632,7.889-5.2Z" fill="#f3b3b4"/><path d="M132.365,4964.555l40.3,27.627s7.017,6.192,5.026,13.547c-2.642,9.762-9.678,10.972-20.421,2.509-15.52-12.227-31.724-30.439-31.724-30.439S125.39,4968.4,132.365,4964.555Z" fill="#f3b3b4"/><path d="M211.973,4915.474s12.214,2.545,20.622,22.536c5.453,12.965-7.015,49.833-7.015,49.833l-67.525-26.776-1.883-15.332s8.313-28.994,21.894-31.527S201.542,4911.673,211.973,4915.474Z" fill="#b9a0cb"/><path d="M251.482,5315.068l-15.208,6.518-18.159-38.946-36.991-87.9-6.061,90.578-7.921,41.357s-1.617,2.331-19.738-.9l-.61-44.3-1.192-88.3s-.662-79.427,9.909-138.376c24.824-3.629,43.794-9.193,68.618-16.611,3.921,6.438,15.128,14.942,17.062,25.539,3.206,17.487-1.457,40.006-1.457,40.006l-3.577,92.039,8.849,78.58Z" fill="#f3b3b4"/><path d="M160.727,5027.319a159.735,159.735,0,0,0-7.416,38.986c-3.535,19.937-9.07,55.369-12.328,97.429-3.6,46.5-2.573,102.568-1.306,148.164,0,0,9.676,2.6,33.614,2.937,8.234-35.907,11.4-104.759,11.4-104.759s35.656,98.855,37.721,99.211c8.158,1.407,28.777-5.368,31.819-13.706,0,0-15.074-84.989-18.6-114.224,12.4-74.082,8.265-102.918,5.222-113.57-5.763-20.17-16.621-31.334-16.621-31.334Z" fill="#9fb194"/><path d="M229.689,5034.018a226.171,226.171,0,0,0-5.487-25.791l3.5-27.2-14.639-3.895-19.214-41.547-28.9-1.46s-13.59,14.492-13.129,24.174,8.642,23.973,8.642,23.973l0,.007c-1.9,16.624-3.168,32.635-5.289,47.647C178.277,5034.982,205.591,5035.014,229.689,5034.018Z" fill="#b9a0cb"/><rect width="60.823" height="52.018" rx="11.672" transform="translate(252.375 5098.165) rotate(174.086)" fill="#ba6c62"/><line x2="9.136" y2="72.45" transform="translate(232.525 4985.056)" fill="none" stroke="#ba6c62" stroke-linecap="round" stroke-linejoin="round" stroke-width="1.974"/><path d="M144.255,5321.157s5.349-.391,12.2-.391c5.463,0,14.184.391,14.184.391l-.834,14.536.834,16.8s-9.481,5.177-35.288,5.071-22.6-6.457,9.4-21.4Z" fill="#e88a56"/><path d="M233.113,5319.339s5.681-4.662,20.224-8.645l6.535,14.005,6.43,12.165s-9.694,10.155-32.427,21.679c-30.348,15.384,4.189-29.119,4.189-29.119Z" fill="#e88a56"/><path d="M229.239,4932.015c-3.668-6.092-28.006,4.973-28.006,4.973l16.212,36.383c8.772-2.891,17.058-6.826,24.216-14.062C238.1,4949.512,233.931,4939.81,229.239,4932.015Z" fill="#b9a0cb"/><path d="M255.08,5006.477a390.335,390.335,0,0,0-13.419-47.168c-7.158,7.236-15.444,11.171-24.216,14.062l13.843,31.066Z" fill="#f3b3b4"/><path d="M181.654,4849.416s-11.012,5.26-11.645,14.242,9.737,12.513,9.737,12.513S193.769,4845.681,181.654,4849.416Z" fill="#5a3a41"/><path d="M183.4,4899.878s2.075,10.11.938,14.031-3.32,14.208,5.489,10.8,14.4-10.087,14.849-11.747.266-15.627.266-15.627Z" fill="#f3b3b4"/><path d="M184.784,4909.1a34.5,34.5,0,0,0,19.752-1.316,1.22,1.22,0,0,1,1.657,1.127v7.023s-11.8,19.126-20.789,15.048-7.731-9.936-7.731-9.936l5.572-6.436.046-4.336A1.211,1.211,0,0,1,184.784,4909.1Z" fill="#b9a0cb"/><path d="M180.5,4852.159s-6.456,7.365-6.474,25.091c-.012,12.379,5.925,29.7,22,26.2s25.443-15.662,25.864-25.107-4.968-25.258-15.347-31.088S183.525,4845.253,180.5,4852.159Z" fill="#f3b3b4"/><path d="M169.995,4864.831s3.205-2.847,7.29-6.815c1.827-4.969,5.309-10.864,13.3-10.6,0,0-2.157,10.9,6.122,14.118,13.462,2.2,10.618,12.028,13.552,13.617s7.457-7.342,7.457-7.342l6.947,15.851s8.351-31.08-11.02-43.449c-13.587-8.676-20.181-1.386-20.181-1.386s1.049-3.282-7.064-3.4S166.674,4849.69,169.995,4864.831Z" fill="#5a3a41"/><path d="M210.522,4860.805s-5.215,12.573-.963,19.693c2.172,3.635,5.017-9.358,8.466-8.385,3.235.914,4.63,10.2-1.77,14.467-2.612,7.523-4.081,8.971-6.722,11.074,4.965.987,13.393-4.378,15.1-13.308C226.894,4872.5,210.522,4860.805,210.522,4860.805Z" fill="#5a3a41"/><path d="M217.36,4916.8s-5.275-2.675-8.863-1.911c-4.4.935-17.709-5.3-13.546,149.016" fill="none" stroke="#ba6c62" stroke-linecap="round" stroke-linejoin="round" stroke-width="1.974"/><path d="M200.519,5042.291l-11.162,8.7s-5.91,19.24-4.433,22.706,11.124,3.181,14.6.192,4.779-10.7,4.779-10.7,6.634-7.853,6.444-13.421S203.444,5041.667,200.519,5042.291Z" fill="#f3b3b4"/><path d="M237.1,4996.818c-7.326,5.411-23.957,33.627-37.236,45.046,3.031,3.888,6.825,6.017,11.516,8.971,14.017-7.506,31.142-23.873,39.1-31.987C262.009,5009.3,252.216,4995.338,237.1,4996.818Z" fill="#f3b3b4"/><path d="M128.4,4963.571l-2.305,14.492a.841.841,0,0,1-1.379.506l-23.14-19.834a2.348,2.348,0,0,1-.791-2.152l2.173-13.66a.841.841,0,0,1,1.379-.506l23.78,20.383A.841.841,0,0,1,128.4,4963.571Z" fill="#243347"/><path d="M126.815,4955.557s-2.973-2.374-8.823-1.6,3.791,5.848,8.294,5.643C127.294,4959.551,126.815,4955.557,126.815,4955.557Z" fill="#f3b3b4"/><path d="M184.687,5210.076s-6.772-17.623-6.636-34.267,3.317-60.7,3.317-60.7-10.361,60.049-8.4,75.713,10.846,34.64,10.846,34.64Z" fill="#798870"/><path d="M183.676,4901.329s7.111,4.9,17.429.656c-4.7,3.224-9.57,5.2-16.9,2.744Z" fill="#ee9497"/></g></svg>