<svg xmlns="http://www.w3.org/2000/svg" width="186.755" height="526.394" viewBox="0 0 186.755 526.394"><g transform="translate(-89.068 -4439.319)"><path d="M161.52,4456.047s-6.73,13.908-4.317,39.458c0,0,11.2,10.088,27.365,11.075s31.74-12.172,31.74-12.172a93.043,93.043,0,0,0-2.134-32.969C208.309,4449.6,161.52,4456.047,161.52,4456.047Z" fill="#ba6c62"/><path d="M256.5,4668.488l7.895,25.825-3.673.6-5.7-23.3,4.057,23.3-3.509.274L252.659,4672S253.536,4666.953,256.5,4668.488Z" fill="#ba6c62"/><path d="M169.015,4802.478s.183,11.308-4.374,29.646c-4.326,17.4-13.315,50.684-25.03,87.6,0,0-22.659,21.2-20.108,1.519s17.679-126.785,17.679-126.785S166.828,4791.908,169.015,4802.478Z" fill="#f3b3b4"/><path d="M199.754,4805.151s6.6,105.6,8.26,115c2.065,11.664,13.329,17.861,16.709-4.009s11.452-119.009,6.946-120.831S202.757,4790.936,199.754,4805.151Z" fill="#f3b3b4"/><path d="M233.166,4648.417s-17.82-46.217-17.708-53.945c-1.022-11.117,6.952-31.59,9.932-41.8,3.98-13.629-2.13-24.2-1.458-38.212-2.6-2.371-31.677-6.5-31.677-6.5-8.771-.925-40.543,5.148-40.949,5.316.983,8.607-9.067,22.257-6.592,35.508,2.566,13.735,14.423,35.777,12.637,48.964.3,2.028-7.892,47.23-7.594,49.389C160.692,4654.188,233.166,4648.417,233.166,4648.417Z" fill="#b9a0cb"/><path d="M157.684,4571.278s21.287,4.6,57.829.657C196.9,4580.6,171.348,4579.831,157.684,4571.278Z" fill="#927ab0"/><path d="M138.1,4524.75s-24.57,38.018-26.5,60.511,17.622,13.216,24.024,3.355,26.4-58.487,22.377-70.117S142.377,4516.5,138.1,4524.75Z" fill="#b9a0cb"/><path d="M176.849,4497.362l-.357,12.477s8.99,19.478,10.808,19.478c1.364,0,7.779-18.825,8.146-20.036l-1.268-11.919Z" fill="#f3b3b4"/><path d="M161.912,4475.2s-6.367-19.922,7.028-30.608c8.985-7.168,13.8-5.882,18.542-2.844,25.151-7.533,29.4,26.557,27.7,34.809s-45.949,4.269-45.949,4.269Z" fill="#ba6c62"/><path d="M164.171,4460.34s-3.012,14.652,3.256,27.076,12.84,15.251,24.459,13.632,15.611-19.589,14.357-33.269-5.479-14.8-5.479-14.8S176.287,4439.406,164.171,4460.34Z" fill="#f3b3b4"/><path d="M203.97,4483.484a5.026,5.026,0,0,0,5.348.114c2.674-1.739,5.236-14.2-3.395-11.013S203.97,4483.484,203.97,4483.484Z" fill="#f3b3b4"/><path d="M163.648,4473.443s-.522-.859.883.716c17.866-3.546,21.311-17.65,21.311-17.65a15.957,15.957,0,0,0,5.766,8.922,35.693,35.693,0,0,0,14.864,6.968l5.984-8.571L200.8,4451.1l-10.622-3.134-14.139-.3-13.5,7.214-1.019,6.967Z" fill="#ba6c62"/><path d="M164.531,4474.159s-4.709-5.418-5.651,1.8c-.795,6.1,3.972,11.058,10.234,9.089C165.86,4477.972,164.531,4474.159,164.531,4474.159Z" fill="#f3b3b4"/><path d="M233.628,4527.816s16.212,46.473,15.291,69.03-18.479,5.414-23.588-5.174-10.062-38.509-10.062-38.509-2.316-23.306,3.135-34.337S230.423,4519.1,233.628,4527.816Z" fill="#b9a0cb"/><path d="M165.066,4472s16.949-6.743,20.776-15.491c0,0,16.4,15.127,19.865,14.033s.365-16.949-1.093-18.407-26.426-5.285-35.721,2.551S165.066,4472,165.066,4472Z" fill="#ba6c62"/><path d="M156.622,4602.733c20.521,1.824,40.656,1.763,60.02-2.065,0,0,20.169,33.048,21.141,52.488s-90.134,24.759-91.854,24.421C145.929,4653.034,156.622,4602.733,156.622,4602.733Z" fill="#3d5c7c"/><path d="M237.783,4653.156c-5.611-14.193-38.418,1.8-44.567,4.949a7.219,7.219,0,0,0-1-2.4c-9.477-12.757-42.282,5.467-45.927,17.5L116.2,4831.932c52.834,31.173,144.079,1.893,144.079,1.893C248.544,4702.976,237.783,4653.156,237.783,4653.156Z" fill="#3d5c7c"/><path d="M206.7,4910.491c6.548,3,12.959,3.228,19.212.243l3.073,40.553a7.769,7.769,0,0,1-2.035,5.83c-3.042,3.336-8.418,8.672-11.614,8.595-3.479-.083-5.326-2.475-8.171-5.036-3.685-3.318-7.1-8.229-6.338-13.051Z" fill="#ba6c62"/><path d="M154.931,4630.869s4.333,3.891,5.027,6.106-4.729,16.4-6.961,19.817-4.959-18.741-4.959-18.741Z" fill="#f3b3b4"/><path d="M146.562,4645.325s-27.757-35.931-33.645-48.717,6.4-21.712,6.4-21.712,6.519-7.592,15.186,9.211c8.994,17.436,22.28,47.312,23.182,48.421A149.89,149.89,0,0,1,146.562,4645.325Z" fill="#b9a0cb"/><path d="M120.9,4907.939c8.307-.946,14.4,5.6,22.355,1.094a202.469,202.469,0,0,1-.972,26.244c-1.457,12.757-1.822,23.328-1.822,23.328h-4.009l-.912-17.314-6.925,16.949H89.068s.729-13.365,8.019-15.066,15.8-13.182,15.8-13.182S118.471,4918.632,120.9,4907.939Z" fill="#ba6c62"/><path d="M250.84,4764.378l-20.551-1.518a5.8,5.8,0,0,1-5.327-6.509l7.512-59.6a3.062,3.062,0,0,1,3.2-2.674l7.994.4Z" fill="#ba6c62"/><path d="M250.359,4764.3l21.931-9.313a5.8,5.8,0,0,0,3.45-6.311l-9.294-54.591a2.26,2.26,0,0,0-2.47-1.868l-22.15,2.375Z" fill="#ba6c62"/><path d="M241.914,4644.286s-6.8,24.543-1.458,22.356,4.374-4.86,4.374-4.86l1.7,9.72s-5.346-6.561-6.075-1.458,3.888,9.234,8.019,7.29,10.206-6.561,10.206-8.5-1.458-26.244-6.561-26.73S241.914,4644.286,241.914,4644.286Z" fill="#f3b3b4"/><path d="M256.423,4646.305s-1.868-39.628-5.612-53.2S235,4579.284,235,4579.284s-12.141.455-8.469,19c4.336,21.9,13.274,50.47,13.3,51.9,3.915-.168,13.188-2.719,16.885-3.687C256.542,4646.382,256.423,4646.305,256.423,4646.305Z" fill="#b9a0cb"/><path d="M162.082,4510.692l.493,100.564h8.114l-2.741-101.442Z" fill="#3d5c7c"/><path d="M202.624,4508.957l.182,101.1,8.107.35-2.692-100.525Z" fill="#3d5c7c"/><path d="M246.531,4671.5v35.531l-4.194-3.7,1.754-30.55s.4-3.34,2.028-3.636Z" fill="#ba6c62"/><path d="M233.853,4696.506s8.2-23.645,10.953-26.16c.835-.1,0,3.187,0,3.187l-7.554,23.521Z" fill="#ba6c62"/><path d="M176.8,4499.011a19.5,19.5,0,0,0,16.016,1.867c-4.143,3.344-11.513,4.716-16.135,2.3Z" fill="#ee9497"/></g></svg>