<svg xmlns="http://www.w3.org/2000/svg" width="187.573" height="520.834" viewBox="0 0 187.573 520.834"><g transform="translate(-302.792 -4637.093)"><path d="M485.276,4707.136s3.684,9.536-8.777,29.366-13.437-5.282-13.437-5.282l2.817-14.114s12.054-17.091,16.8-14.561S485.276,4707.136,485.276,4707.136Z" fill="#f3b3b4"/><path d="M477.612,4728.153l-4.147-.861,14.52-39.541,2.38,1Z" fill="#9fb194"/><path d="M473.578,4729.524l-9-5.822,12.786-37.073,10.619,1.123Z" fill="#447da9"/><path d="M459.919,4734.012s.433-15.281,1.842-17.99,8.561-12.245,12.137-12.245-3.684,10.186-3.684,10.186-3.468,6.42-5.852,11.839c-.377.857.842,3.988.488,4.714C462.966,4734.372,459.919,4734.012,459.919,4734.012Z" fill="#f3b3b4"/><path d="M440.623,4832.059c-10.191.976-11.243-14.964-1.171-48.788L456.44,4731.9c.3-4.7,15.4-4.19,23.01,5.609-2.783,13.457-13.156,67.138-15.77,76.227C460.092,4826.212,447.259,4831.424,440.623,4832.059Z" fill="#447da9"/><path d="M462.587,4811.188s-45.74-67.521-51.408-71.848c-11.467-8.755-28.569-8.447-29.712,14.164s54.1,77.031,54.1,77.031Z" fill="#447da9"/><path d="M411.551,4681.721s15.124,20.041,3.387,35.122-31.422,18.118-34.313-2.254S399.42,4677.028,411.551,4681.721Z" fill="#e88a56"/><path d="M350.978,4879l55.28,22.747-14.2,79.566c-.565,7.176-1.337,18.153-4.077,24.809l-38.6,72.613s-8.2,25.606-22.566,19.448-4.954-15.594-4.954-15.594,7.306-43.045,13.036-61.31c3.74-11.917,10.762-36,10.762-36S342.994,4934.041,350.978,4879Z" fill="#b9a0cb"/><path d="M420.011,5092.67c-.086-2.963,12.835-88.787,11.314-129.055-1.489-39.408-5.782-98.488-11.046-125.366l-54.935-4.489S354.979,4844.5,349.98,4854.7c-12.309,25.118,11.324,56.748,12.874,55.2,1.113,2.226,13.443,63.553,18.841,82.476.865,3.03,10.613,78.476,14.6,96.822C417.171,5093.966,398.635,5094.112,420.011,5092.67Z" fill="#b9a0cb"/><path d="M394.269,5120.036c-1.467,7.867-.187,28.01.424,36.356a8.41,8.41,0,0,0,5.077.423l.361-22.464a131.608,131.608,0,0,1,11.243,13.327c6.017,8.073,24.6,10.186,24.6,10.186v.03c4.08-.176,21.106,1.434,21.106-6.077,0-1.262-26.1-15.969-30.412-21.781-1.291-1.966-5.034-12.74-5.738-15.382,0-.557,4.193-46.887,4.193-46.887s-14.981-6.381-35.266,3.1C389.856,5081.846,391.07,5099.723,394.269,5120.036Z" fill="#ba6c62"/><path d="M313.824,5102.788c-3.867,7.006-8.986,26.528-11.032,34.644a8.414,8.414,0,0,0,4.686,2l7.408-21.21a131.462,131.462,0,0,1,6.481,16.187c3.174,9.555,20.147,17.4,20.147,17.4l-.009.028c3.929,1.116,19.583,8,21.946.87.4-1.2-19.75-23.366-22.018-30.24-.608-2.274-.772-13.677-.61-16.406.176-.53,18.727-43.19,18.727-43.19s-12.214-10.769-34.451-8.148C321.646,5065.147,317.176,5082.5,313.824,5102.788Z" fill="#ba6c62"/><path d="M363.241,4830.18s-8.12-76.771-.834-94.158,24.97-29.305,37.131-20.289,16.113,19.124,19.1,29.349-4.3,28.8-4.3,28.8,4.685,47.213,3.116,69.3C417.45,4843.188,370.816,4841.705,363.241,4830.18Z" fill="#f3b3b4"/><path d="M399.882,4695.676l-.213,19.649s-19.555,4.941-23.907,1.128l4.326-29.26S392.966,4690.715,399.882,4695.676Z" fill="#f3b3b4"/><path d="M347.689,4819.378c3.88-36.11,3.825-65.8,6.616-79.788,2.866-14.355,12.642-25.284,23.36-28.013,0,0,15.916-.37,24.324,5.113,14.867,13.368,17.364,18.328,28.636,41.675,2.815,5.832,4.355,31.127-2.132,73.211-2.977,11.608,13.93,99.772,13.529,106.562,0,0-28.049,14.983-108.9-.215C333.124,4937.923,343.246,4860.723,347.689,4819.378Z" fill="#9fb194"/><path d="M361.382,4864.834S360.1,4742,366.908,4733.39c6.341-8.019.99,134.9.99,134.9Z" fill="#3d5c7c"/><path d="M367.971,4729.814s2.528-10.728,17.482-10.241,33.463,111.669,34.937,136.809-5.254,27.741-4.925,25.574-28.674-148.892-28.674-148.892Z" fill="#3d5c7c"/><path d="M419.612,4846.013l-63.934,7.585s-3.493,75.492,1.408,87.341,50.585,6.176,71.293,1.3S419.612,4846.013,419.612,4846.013Z" fill="#3d5c7c"/><path d="M378.128,4649.778c14.794-1.292,30.014-1.939,44.758-.608a47.547,47.547,0,0,1,2.3,21.444c-2.13,18.843-10.066,32.436-24.3,29.966-21.061-3.657-29.364-21.406-26.038-39.983A47.7,47.7,0,0,1,378.128,4649.778Z" fill="#f3b3b4"/><path d="M424.965,4643.954s13.793,11.193.553,19.62c-1.838,1.17-7.481,1.761-19.753,1.761-4.88,2.329,1.381-2.261-1.946-5.422S405.149,4633.221,424.965,4643.954Z" fill="#e88a56"/><path d="M419.12,4645.085s-7.915-13.73-30.757-5.2-16.97,34.124-13.025,39.536,11.246,1.6,11.246,1.6S410.678,4696.3,419.12,4645.085Z" fill="#e88a56"/><path d="M422.588,4677.057s1.07,8.541.569,10.694-6.106,4.1-6.106,4.1S420.248,4679.388,422.588,4677.057Z" fill="#f3b3b4"/><path d="M433.518,4895.106s9.729,5.13,10.648,10.9,2.561,9.334-2.353,13.19c-2.61,2.049-13.395,7-18.948,4.149-5.4-2.776-5.107-19.726-4.572-21.814.145-.567-1.006-3.43-2.828-7.5,5.89-1.043,11.867-1.28,17.184-1.741Z" fill="#f3b3b4"/><path d="M387.172,4797.807c8.062-7.081,18.734,5.822,30.922,40.747l17.071,54.08c2.628,4.181-10.521,13.009-23,9.347-5.89-13.145-30-65.131-33.355-74.459C374.212,4814.719,381.921,4802.418,387.172,4797.807Z" fill="#447da9"/><path d="M411.2,4821.074s-10.188-80.916-13.281-87.342c-6.255-13-21.642-20.472-32.9-.832s13.335,93.183,13.335,93.183Z" fill="#447da9"/><path d="M374.138,4652.346s-8.6,9.494-9.47,25.857,14.629,14.336,14.629,14.336,6.068-1.557,10.4-10.764,12.353-7.578,12.57-12.781S380.682,4650.436,374.138,4652.346Z" fill="#e88a56"/><path d="M369.533,4659.532s-14.889,16.612-18.79,45.445c-1.732,12.8,5.032,20.581,24.1,19.714s27.557-14.629,17.371-46.921S369.533,4659.532,369.533,4659.532Z" fill="#e88a56"/><path d="M486.793,4699.442s-5.96-1.625-10.078,9.536-4.876,16.038-3.9,19.181,1.734,4.117,4.985,1.733S489.827,4712.013,486.793,4699.442Z" fill="#f3b3b4"/><path d="M384.649,5012.386l-12.055-58.666,6.985,68.2Z" fill="#927ab0"/></g></svg>