<svg xmlns="http://www.w3.org/2000/svg" width="135.441" height="526.254" viewBox="0 0 135.441 526.254"><g transform="translate(-127.512 -4033.398)"><path d="M170.845,4159.324l-.664-7.98c-10.55,2.165-19.658.049-29.14-2.755.988,21.614,7.132,56.626,7.132,56.626s.064,6.892,10.344,6.165c3.272-.232,10.959-2.567,11.366-9.257C170.851,4186.2,170.845,4159.324,170.845,4159.324Z" fill="#f3b3b4"/><path d="M132.428,4260.023s-3.834,7.644-4.771,12.446,2.873,17.852,5.69,20.136,2.1-9.513,1.764-13.766l1.338-1.35s.722,3.5,1.256,5.926,2.742-1.213,4.265-5.13c.886-2.278,1.861-5.484,2.522-7.766a9.983,9.983,0,0,0,0-5.539l-1.113-6.142s2.189-5.815-2.27-5.811S134.5,4255.127,132.428,4260.023Z" fill="#f3b3b4"/><path d="M151.484,4200.815c4.278-8.613,9.964,7.6,11.565,13.386,2.324,8.394-12.78,32.724-19.207,47.182-5.349-1.543-6.929,2.555-11.263-1.706C136.386,4244.613,149.436,4204.941,151.484,4200.815Z" fill="#f3b3b4"/><path d="M152.929,4069.211s-3.274-1.51-1.446-4.523-3.154-4.112-1.92-7.4,3.783-4.112,2.878-7.155-1.48-9.047,4.03-9.869,4.935-2.467,7.073-3.948,8.47-4.427,13.077-1.974a16,16,0,0,0,12.007,1.4c3.619-.823,10.2-.576,12.995,3.865s2.714,7.649,4.687,9.047,7.385,6.958,5.3,11.991-6.119,6.157-4.885,8.967,6.661,5.03,6.414,8.567-3.618,7.155-1.151,12.583,3.125,8.964-1.069,11.432.822,8.553-6.744,12.089-48.285,6.909-51.036,1.4-4.583-6.134-3.408-9.823-2.208-6.3-.364-11.067,3.546-3.372,2.119-6.579,2.1-5.536,2.514-11.075S152.929,4069.211,152.929,4069.211Z" fill="#e88a56"/><path d="M156.929,4363.1l13.278,139.549c.515,6.109,3.774,10.962,9.881,10.434,0,0,5.98-2.484,6.342-7.816,3.839-56.453,17.36-96.623,6.96-148.8C189.178,4335.337,155.063,4331.485,156.929,4363.1Z" fill="#f3b3b4"/><path d="M156.929,4363.1l13.278,139.549c.515,6.109,3.774,10.962,9.881,10.434,0,0,5.98-2.484,6.342-7.816,3.839-56.453,17.36-96.623,6.96-148.8C189.178,4335.337,155.063,4331.485,156.929,4363.1Z" fill="#f3b3b4"/><path d="M147.722,4258.6l9.193,100.821s1.4,21.231,18.847,20.2c17.292-1.022,17.628-23.147,17.628-23.147l9.325-92.606s-.023-28.211-21.649-34.4C150.863,4220.82,147.722,4258.6,147.722,4258.6Z" fill="#f3b3b4"/><path d="M186.694,4508s1.232,18.817,2.727,28.527c0,0,2.328,19.412-7.522,21.038a95.341,95.341,0,0,1-19.56.941s-2.478-7.464.167-9.756c4.027-3.491,8.157-30.4,8.067-44.084,0,0-.274-7.295,6.433-8.236S185,4497.672,186.694,4508Z" fill="#f3b3b4"/><path d="M160.948,4549.8a11.513,11.513,0,0,0,2.706-3.867,16.361,16.361,0,0,0,19.118-3.088c4.956-7.435,4.636-24.344,4.357-29.379,1.29-.084,2.143,1.106,2.719,3a.479.479,0,0,1,.225.282c2.906,9.855,2.307,21.444,2.358,31.618a.617.617,0,0,1-1.233,0q-.011-2.436-.03-4.9c-.422,7.613-2.619,14.572-7.2,15.328-10.05,1.658-23.528.42-23.528.42S158.25,4552.134,160.948,4549.8Z" fill="#9fb194"/><path d="M188.633,4394.864l47.7,108.483c1.893,5.831,6.169,9.815,12,7.912,0,0,5.258-3.779,4.4-9.054-9.106-55.846-6.857-73.661-28.856-122.106C214.964,4360.481,179.621,4364.5,188.633,4394.864Z" fill="#f3b3b4"/><path d="M176.027,4275.62l10.178,100.726s1.607,21.216,19.044,20.014c17.28-1.191,17.4-23.319,17.4-23.319l8.419-92.693s-.3-28.208-21.985-34.185C178.8,4237.816,176.027,4275.62,176.027,4275.62Z" fill="#f3b3b4"/><path d="M253.732,4505.363s3.219,18.581,5.735,28.077c0,0,4.372,19.057-5.251,21.717a87.917,87.917,0,0,1-19.456,2.8s-3.149-6.954-.763-9.514c3.636-3.9,4.891-31.1,3.352-44.69,0,0-1.045-7.226,5.524-8.872S250.958,4495.271,253.732,4505.363Z" fill="#f3b3b4"/><path d="M232.753,4549.942a11.472,11.472,0,0,0,2.281-4.131,16.361,16.361,0,0,0,18.684-5.1c4.14-7.917,1.531-25.609.72-30.586,1.265-.4,2.373,1.7,3.332,4.863.013.02.038.019.05.042,4.354,8.293,4.691,20.054,5.132,29.2a.569.569,0,0,1-.814.546c-.3,5.826-1.934,10.668-5.538,11.664-9.818,2.715-23.457,2.706-23.457,2.706S230.318,4552.553,232.753,4549.942Z" fill="#9fb194"/><path d="M170.181,4151.344l-2.382-28.652c-4.769-11.078-15.046-14.723-21.719-4.678-2.593,3.9-7.08,15.313-6.508,30.449C149.465,4151.726,159.631,4153.509,170.181,4151.344Z" fill="#447da9"/><path d="M149.871,4114.349c6.96-6.932,30.009-10.458,34.194-10.772v-.027c.04,0,.114.011.159.013s.119-.012.16-.013v.027c4.184.314,31.94,2.63,37.67,22.819,2.922,6.444-2.59,12.884-7.65,55.117-1.568,11.224,1.038,19.354,1.482,22.992-16.574,9.95-45.776,10.305-62.351.355.444-3.638.174-21.995-2.4-36.176-7.143-9.614-5.7-17.976-5.7-17.976C145.43,4140.741,146.95,4120.793,149.871,4114.349Z" fill="#b9a0cb"/><path d="M186.851,4092.685l.381,13.322s.04,4.6-.01,4.634c-1.3.962-6.44,6.394-14.707,5.243a6.143,6.143,0,0,1-5.479-6.47l1.313-16.729Z" fill="#f3b3b4"/><path d="M187.247,4103.55s-8.791,37.535-5.871,92.219c14.716,3.29,46.793-2.823,46.793-2.823l-10.036-64.287s4.771-1.185,1.994-6.936C215.893,4112.951,206.483,4106.686,187.247,4103.55Z" fill="#447da9"/><path d="M154.159,4208.539c9.325,2.254,19,2.922,28.507,3.1,17.479.332,21.4-1.747,32.286-2.46,0,0,16.081,22.4,22.057,46.3,10.788,43.169,24.045,127.383,25.372,140.737-30.559,17.4-114.659,13.707-129.615-3.509,1.273-12.81,1.22-83.579,5.89-126.873C141.587,4238.666,154.159,4208.539,154.159,4208.539Z" fill="#3d5c7c"/><path d="M153.535,4204.86s20.682,3.994,62.351-.355l1.633,8.488s-45.881,3.868-64.549-1.47Z" fill="#447da9"/><path d="M200.388,4054.9s3.215,15.643-3.478,28.908-13.708,16.283-26.114,14.555-16.667-20.915-15.328-35.521,5.85-15.8,5.85-15.8S187.452,4032.55,200.388,4054.9Z" fill="#f3b3b4"/><path d="M201.593,4069.028s-3.774,11.855-5.774,10.815c-6.367-3.312-4.027-23.489-4.027-23.489s-9.158-17.992-32.4-4.076c0,0-2.283,13.306-3.627,16.918s-1.817-3.068-1.761-4.207c.184-3.774,2.273-14.943,2.273-14.943l5-5.006,11.341-3.346,15.1-.319,14.418,7.7,1.088,7.439Z" fill="#e88a56"/><path d="M196.175,4072.616s3.317-6.983,5.94.332a8.649,8.649,0,0,1-10.834,11.293C194.755,4076.687,196.175,4072.616,196.175,4072.616Z" fill="#f3b3b4"/><path d="M156.03,4068.394a3.521,3.521,0,0,0,2.366-2.637c.679-2.289,1.091-1.809,2.955-2.522s4.388-6.168,4.441-7.511c.712,3.207,1.48,7.774,4.277,7.4s2.482,3.238,5.607,3.512,4.81-1.983,6.674-.612,3.742,6.239,8.293,1.688c0,0,.48,8.457,2.344,10.321s2.874-5,3.124-10.742-1.26-6.086-1.26-6.086l1.015-7.168-10.4-10.651-21.877,1.768-5.189,8.32S153.34,4061.929,156.03,4068.394Z" fill="#e88a56"/><rect width="42.76" height="29.065" rx="4.668" transform="translate(188.767 4228.111) rotate(11.317)" fill="#ba6c62"/><path d="M238.388,4196.11c2.136-10.293-10-13.862-15.282-9.971-7.664,5.647-12.468,40.241-16.7,57.009,5.64,2.284,4.232,6.874,10.835,6.136C224.135,4233.764,237.364,4201.04,238.388,4196.11Z" fill="#f3b3b4"/><path d="M206.4,4243.148s-2.056,1.524-4.186,3.485-3.6,12.229-3.627,14.324,9.443,6.758,14.474,6.381,5.1-14.355,5.292-17.692a43.612,43.612,0,0,0-.782-8.407Z" fill="#f3b3b4"/><path d="M205.91,4147.231c3.922,15.267,10.886,34.954,14.211,45.462,6-1.022,12.85,2.545,18.078-1.555-1.482-10.861-6.39-31.418-10.149-45.91A140.108,140.108,0,0,1,205.91,4147.231Z" fill="#f3b3b4"/><path d="M220.5,4122.333c-5.281-9.089-14.14-4.413-17.1,5.635-.975,3.312-.661,16.429,1.571,25.117,7.333-.195,15.955-3.043,23.933-6.489C226.842,4138.634,222.41,4125.616,220.5,4122.333Z" fill="#447da9"/><path d="M167.251,4106.674s-7.894,42.381-5.263,87.779c-10.965,1.316-15.9-2.3-15.9-2.3s-3.55-35.407-1.645-50.99,2.053-23.576,4.359-26.339S157.985,4108.951,167.251,4106.674Z" fill="#447da9"/><path d="M167.962,4097.618s5.924,3.078,15.876-.581c-4.113,4.4-12,6.481-16.178,4.433Z" fill="#ee9497"/></g></svg>