<svg xmlns="http://www.w3.org/2000/svg" width="464.471" height="545.677" viewBox="0 0 464.471 545.677"><g transform="translate(-682.249 -5136.653)"><rect width="464.472" height="545.677" rx="54.433" transform="translate(682.249 5136.653)" fill="#fff"/><rect width="463.318" height="544.42" rx="54.298" transform="translate(682.82 5137.281)" fill="#fffffe"/><rect width="462.165" height="543.163" rx="54.163" transform="translate(683.39 5137.91)" fill="#fffffd"/><rect width="461.012" height="541.906" rx="54.028" transform="translate(683.961 5138.538)" fill="#fffffc"/><rect width="459.859" height="540.65" rx="53.892" transform="translate(684.531 5139.166)" fill="#fffffb"/><rect width="458.706" height="539.393" rx="53.757" transform="translate(685.102 5139.794)" fill="#fffffa"/><rect width="457.553" height="538.136" rx="53.622" transform="translate(685.672 5140.423)" fill="#fffff9"/><rect width="456.4" height="536.879" rx="53.487" transform="translate(686.243 5141.051)" fill="#fffff8"/><rect width="455.247" height="535.623" rx="53.352" transform="translate(686.813 5141.68)" fill="#fffff7"/><rect width="454.094" height="534.366" rx="53.217" transform="translate(687.384 5142.308)" fill="#fffff6"/><rect width="452.94" height="533.109" rx="53.082" transform="translate(687.954 5142.937)" fill="#fffff5"/><rect width="451.787" height="531.852" rx="52.946" transform="translate(688.525 5143.565)" fill="#fffff4"/><rect width="450.634" height="530.596" rx="52.811" transform="translate(689.095 5144.193)" fill="#fffff3"/><rect width="449.481" height="529.339" rx="52.676" transform="translate(689.666 5144.822)" fill="#fffff2"/><rect width="448.328" height="528.082" rx="52.541" transform="translate(690.236 5145.45)" fill="#fffff1"/><rect width="447.175" height="526.825" rx="52.406" transform="translate(690.807 5146.079)" fill="ivory"/><rect width="446.022" height="525.569" rx="52.271" transform="translate(691.377 5146.707)" fill="#ffffef"/><rect width="444.869" height="524.312" rx="52.136" transform="translate(691.948 5147.335)" fill="#ffe"/><rect width="443.716" height="523.055" rx="52.001" transform="translate(692.518 5147.963)" fill="#ffffed"/><rect width="442.563" height="521.798" rx="51.865" transform="translate(693.089 5148.592)" fill="#ffffec"/><rect width="441.409" height="520.542" rx="51.73" transform="translate(693.659 5149.22)" fill="#ffffeb"/><rect width="440.256" height="519.285" rx="51.595" transform="translate(694.23 5149.849)" fill="#ffffea"/><rect width="439.103" height="518.028" rx="51.46" transform="translate(694.8 5150.477)" fill="#ffffe9"/><rect width="437.95" height="516.771" rx="51.325" transform="translate(695.371 5151.105)" fill="#ffffe8"/><rect width="436.797" height="515.515" rx="51.19" transform="translate(695.941 5151.734)" fill="#ffffe8"/><rect width="435.644" height="514.258" rx="51.055" transform="translate(696.512 5152.362)" fill="#ffffe7"/><rect width="434.491" height="513.001" rx="50.919" transform="translate(697.082 5152.991)" fill="#ffffe6"/><rect width="433.338" height="511.744" rx="50.784" transform="translate(697.653 5153.619)" fill="#ffffe5"/><rect width="432.185" height="510.488" rx="50.649" transform="translate(698.223 5154.248)" fill="#ffffe4"/><rect width="431.031" height="509.231" rx="50.514" transform="translate(698.794 5154.876)" fill="#ffffe3"/><rect width="429.878" height="507.974" rx="50.379" transform="translate(699.364 5155.504)" fill="#ffffe2"/><rect width="428.725" height="506.717" rx="50.244" transform="translate(699.935 5156.132)" fill="#ffffe1"/><rect width="427.572" height="505.461" rx="50.109" transform="translate(700.505 5156.761)" fill="#ffffe0"/><rect width="426.419" height="504.204" rx="49.973" transform="translate(701.076 5157.389)" fill="#ffffdf"/><rect width="425.266" height="502.947" rx="49.838" transform="translate(701.646 5158.018)" fill="#ffffde"/><rect width="424.113" height="501.69" rx="49.703" transform="translate(702.217 5158.646)" fill="#ffd"/><rect width="422.96" height="500.433" rx="49.568" transform="translate(702.787 5159.274)" fill="#ffffdc"/><rect width="421.807" height="499.177" rx="49.433" transform="translate(703.358 5159.903)" fill="#ffffdb"/><rect width="420.653" height="497.92" rx="49.298" transform="translate(703.928 5160.531)" fill="#ffffda"/><rect width="419.5" height="496.663" rx="49.163" transform="translate(704.499 5161.16)" fill="#ffffd9"/><rect width="418.347" height="495.406" rx="49.028" transform="translate(705.069 5161.788)" fill="#ffffd8"/><rect width="417.194" height="494.15" rx="48.892" transform="translate(705.64 5162.417)" fill="#ffffd7"/><rect width="416.041" height="492.893" rx="48.757" transform="translate(706.21 5163.044)" fill="#ffffd6"/><rect width="414.888" height="491.636" rx="48.622" transform="translate(706.781 5163.673)" fill="#ffffd5"/><rect width="413.735" height="490.379" rx="48.487" transform="translate(707.351 5164.301)" fill="#ffffd4"/><rect width="412.582" height="489.123" rx="48.352" transform="translate(707.922 5164.93)" fill="#ffffd3"/><rect width="411.429" height="487.866" rx="48.217" transform="translate(708.492 5165.558)" fill="#ffffd2"/></g></svg>