<svg xmlns="http://www.w3.org/2000/svg" xmlns:xlink="http://www.w3.org/1999/xlink" width="406.709" height="263.25" viewBox="0 0 406.709 263.25"><defs><linearGradient id="a" x1="0.123" x2="0.877" y2="1.187" gradientUnits="objectBoundingBox"><stop offset="0" stop-color="#eab8d2"/><stop offset="1" stop-color="#a7d6ef"/></linearGradient></defs><g transform="translate(-95.34 -5202.023)"><path d="M501.107,5451.747c-.022-.022-.05-.038-.072-.059h0c-.04-.038-.075-.081-.118-.117L475.7,5430.117l-4.509-3.836-12.943-11.012V5220.51a9.663,9.663,0,0,0-9.645-9.645H154.415a9.663,9.663,0,0,0-9.646,9.645v194.76l-42.671,36.3c-.041.035-.075.077-.115.114-.024.022-.052.039-.075.062a3.233,3.233,0,0,0-.942,2.274v8.038a3.216,3.216,0,0,0,3.216,3.214H498.833a3.216,3.216,0,0,0,3.216-3.214v-8.038A3.233,3.233,0,0,0,501.107,5451.747Zm-397.535-.88a3.106,3.106,0,0,1,.61-.061A3.182,3.182,0,0,0,103.572,5450.867Zm-.575.171c.024-.009.05-.013.074-.022C103.047,5451.025,103.021,5451.029,103,5451.038Zm395.836-.232a3.116,3.116,0,0,1,.611.061,3.192,3.192,0,0,0-.611-.061Zm1.187.233c-.022-.009-.047-.013-.07-.021C499.973,5451.026,500,5451.03,500.02,5451.039Z" fill="url(#a)"/><path d="M150.4,5271.124v-49.81h292.58v175.227H150.4V5275.928" fill="#fff"/><path d="M350.746,5396.541H150.4v-117.88" fill="none" stroke="#007abb" stroke-linecap="round" stroke-linejoin="round" stroke-width="1.608"/><path d="M150.4,5271.124v-49.81h292.58v175.227H357.041" fill="none" stroke="#585495" stroke-linecap="round" stroke-linejoin="round" stroke-width="1.608"/><path d="M96.144,5445.983v8.038a3.213,3.213,0,0,0,3.215,3.214h49.856" fill="none" stroke="#1c9598" stroke-linecap="round" stroke-linejoin="round" stroke-width="1.608"/><path d="M162.685,5457.235H494.011a3.214,3.214,0,0,0,3.215-3.214v-8.038" fill="none" stroke="#585495" stroke-linecap="round" stroke-linejoin="round" stroke-width="1.608"/><path d="M422.294,5442.768h71.717a3.235,3.235,0,0,1,2.2.882c-.041-.038-.076-.081-.119-.117l-25.218-21.454" fill="none" stroke="#007abb" stroke-linecap="round" stroke-linejoin="round" stroke-width="1.608"/><path d="M118.393,5425.568l-21.118,17.965c-.041.035-.075.077-.114.114a3.233,3.233,0,0,1,2.2-.879H410.472" fill="none" stroke="#db7789" stroke-linecap="round" stroke-linejoin="round" stroke-width="1.608"/><path d="M212.313,5407.232H139.946L122.6,5421.987" fill="none" stroke="#007abb" stroke-linecap="round" stroke-linejoin="round" stroke-width="1.608"/><path d="M466.368,5418.243l-12.944-11.012H222.12" fill="none" stroke="#1c9598" stroke-linecap="round" stroke-linejoin="round" stroke-width="1.608"/><line y2="123.06" transform="translate(139.946 5244.783)" fill="none" stroke="#1c9598" stroke-linecap="round" stroke-linejoin="round" stroke-width="1.608"/><path d="M367.6,5202.827H149.592a9.664,9.664,0,0,0-9.646,9.645v24.39" fill="none" stroke="#db7789" stroke-linecap="round" stroke-linejoin="round" stroke-width="1.608"/><path d="M453.424,5337.947V5212.472a9.662,9.662,0,0,0-9.644-9.645H375.047" fill="none" stroke="#1c9598" stroke-linecap="round" stroke-linejoin="round" stroke-width="1.608"/><line y1="56.164" transform="translate(453.424 5346.245)" fill="none" stroke="#db7789" stroke-linecap="round" stroke-linejoin="round" stroke-width="1.608"/><line y2="31.369" transform="translate(139.946 5372.647)" fill="none" stroke="#db7789" stroke-linecap="round" stroke-linejoin="round" stroke-width="1.608"/><path d="M389.588,5418.243H166.508a15.253,15.253,0,0,0-8.5,3.125l-9.874,8.4c-2.02,1.72-1.5,3.126,1.15,3.126h98.857" fill="none" stroke="#585495" stroke-linecap="round" stroke-linejoin="round" stroke-width="1.608"/><path d="M256.443,5432.893H444.081c2.653,0,3.17-1.406,1.15-3.126l-9.874-8.4a15.25,15.25,0,0,0-8.495-3.125H396.377" fill="none" stroke="#007abb" stroke-linecap="round" stroke-linejoin="round" stroke-width="1.608"/></g></svg>